<?xml version="1.0" standalone="no"?>
<!DOCTYPE svg PUBLIC "-//W3C//DTD SVG 20010904//EN"
 "http://www.w3.org/TR/2001/REC-SVG-20010904/DTD/svg10.dtd">
<svg version="1.0" xmlns="http://www.w3.org/2000/svg"
 width="960.000000pt" height="960.000000pt" viewBox="0 0 960.000000 960.000000"
 preserveAspectRatio="xMidYMid meet">
<metadata>
Created by potrace 1.14, written by Peter Selinger 2001-2017
</metadata>
<g transform="translate(0.000000,960.000000) scale(0.100000,-0.100000)"
fill="#000000" stroke="none">
<path d="M310 9562 c0 -21 -5 -43 -12 -50 -6 -6 -11 -39 -11 -74 1 -35 -4 -69
-9 -75 -6 -7 -7 -27 -4 -45 4 -18 10 -48 13 -66 3 -21 13 -37 27 -42 18 -8 19
-9 2 -9 -12 -1 -16 -6 -12 -17 3 -9 6 -19 6 -22 0 -4 4 -2 8 5 4 6 16 13 27
15 19 3 20 -2 16 -109 -2 -76 0 -113 7 -113 6 0 13 15 16 33 13 76 14 79 13
19 -2 -51 1 -63 16 -68 25 -8 21 -23 -9 -34 -42 -16 -54 -12 -55 18 0 15 -6
42 -13 60 l-12 34 -14 -28 c-12 -21 -12 -28 -2 -31 6 -3 12 -14 11 -26 l0 -22
-11 23 c-16 32 -28 27 -28 -11 0 -21 8 -41 20 -52 11 -10 20 -29 20 -42 0 -14
6 -23 15 -23 9 0 20 -10 26 -23 6 -13 20 -27 32 -32 22 -10 22 -14 27 -278 5
-242 7 -269 23 -278 19 -11 23 -35 6 -41 -6 -2 -9 -13 -7 -23 5 -20 5 -20 13
0 5 11 13 23 19 27 12 8 12 8 24 453 5 208 5 402 -1 500 -13 224 -14 256 -18
378 l-2 107 -84 0 -83 0 0 -38z m37 -144 c-3 -8 -6 -5 -6 6 -1 11 2 17 5 13 3
-3 4 -12 1 -19z m79 -54 c-8 -20 13 -76 35 -96 31 -27 21 -31 -21 -7 -38 21
-40 25 -40 69 0 26 3 50 6 53 11 10 26 -4 20 -19z"/>
<path d="M1820 9577 c0 -13 7 -32 15 -43 13 -16 16 -17 25 -4 5 8 10 27 10 43
0 22 -4 27 -25 27 -19 0 -25 -5 -25 -23z"/>
<path d="M1924 9573 c3 -16 8 -37 11 -48 4 -14 -4 -31 -25 -53 l-30 -34 -18
21 -17 21 -33 -20 c-28 -18 -33 -25 -28 -46 5 -17 3 -23 -4 -19 -5 3 -10 15
-10 26 0 34 -20 20 -22 -16 -4 -73 -3 -80 9 -78 21 5 45 -44 49 -99 2 -33 9
-55 19 -60 8 -5 15 -18 15 -28 0 -13 7 -20 20 -20 15 0 20 -7 20 -26 0 -19 -4
-25 -15 -20 -17 6 -77 -13 -87 -28 -4 -6 0 -18 8 -27 14 -16 14 -18 -5 -28
-18 -10 -20 -8 -24 31 -4 36 -4 34 -4 -12 0 -30 -5 -65 -11 -77 -7 -12 -12
-29 -12 -37 0 -9 -4 -16 -10 -16 -5 0 -10 -9 -10 -19 0 -11 -9 -26 -21 -34
-19 -14 -20 -19 -9 -137 11 -135 14 -142 61 -184 31 -28 33 -28 46 -10 14 19
15 19 29 0 13 -19 15 -19 44 14 16 18 30 40 30 47 0 19 60 73 81 73 9 0 33 -7
54 -15 20 -9 45 -13 56 -10 11 4 30 0 42 -8 27 -17 233 -31 437 -28 81 1 158
-3 173 -8 14 -6 68 -13 119 -17 51 -4 98 -10 103 -15 14 -10 306 -6 323 5 7 4
23 1 35 -7 23 -15 135 -47 164 -47 9 0 21 8 28 17 8 11 27 17 53 18 23 0 45 4
49 9 4 4 9 76 11 159 6 308 8 814 4 865 l-5 52 -850 0 -849 0 6 -27z m61 -12
c3 -5 1 -12 -5 -16 -5 -3 -10 1 -10 9 0 18 6 21 15 7z"/>
<path d="M265 9148 c-4 -9 -2 -24 3 -33 12 -23 22 2 12 30 -7 18 -9 18 -15 3z"/>
<path d="M6220 8564 c-6 -14 -10 -31 -10 -38 0 -6 -6 -18 -12 -24 -8 -8 -13
-43 -14 -88 -2 -81 -6 -92 -26 -75 -32 28 -106 70 -133 77 -16 4 -39 13 -50
20 -11 7 -40 18 -65 25 -25 7 -51 17 -58 22 -18 14 -172 22 -181 10 -3 -5 -15
-15 -26 -21 -11 -6 -14 -12 -7 -12 6 0 12 -8 12 -19 0 -24 -40 -31 -175 -31
-111 0 -160 -10 -181 -37 -16 -21 -18 -53 -4 -53 6 0 10 -7 10 -15 0 -19 -24
-24 -130 -28 -116 -5 -353 -36 -418 -55 -63 -18 -98 -10 -186 43 -109 65 -249
95 -451 95 -71 0 -147 5 -168 11 -30 8 -48 7 -85 -5 -25 -9 -54 -16 -65 -16
-10 0 -33 -6 -50 -14 -45 -19 -119 -41 -137 -39 -8 1 -32 -12 -54 -28 -22 -16
-47 -29 -55 -29 -9 0 -27 -9 -41 -20 -14 -11 -30 -20 -37 -20 -7 0 -17 -9 -23
-20 -6 -11 -17 -20 -24 -20 -7 0 -38 -18 -70 -40 -31 -22 -68 -43 -81 -46 -14
-3 -25 -10 -25 -15 0 -5 -10 -9 -21 -9 -18 0 -21 4 -16 29 6 28 5 28 -45 34
-29 4 -59 2 -70 -4 -11 -6 -31 -7 -46 -3 -15 4 -34 8 -42 9 -9 1 -31 7 -50 13
-19 6 -57 14 -85 18 -27 3 -55 10 -61 15 -12 10 -179 22 -549 39 -185 9 -256
16 -308 32 -38 11 -67 25 -67 33 0 16 -103 31 -108 16 -2 -6 -13 -4 -28 5 -13
9 -25 12 -26 8 -3 -21 -8 -65 -13 -139 -6 -68 -4 -85 13 -115 11 -19 25 -35
31 -35 6 0 16 -6 20 -14 6 -10 10 -10 16 -1 4 6 13 9 20 6 7 -2 23 1 37 8 43
23 88 27 95 10 3 -8 12 -13 19 -10 19 7 45 -4 38 -16 -4 -6 -10 -5 -15 3 -12
19 -27 -4 -34 -51 -3 -19 -10 -48 -16 -65 -6 -16 -14 -42 -16 -57 -3 -16 -12
-28 -19 -28 -8 0 -14 -7 -14 -15 0 -9 9 -15 24 -15 14 0 28 -4 31 -10 10 -16
34 -11 35 8 0 9 2 31 4 47 1 17 4 43 4 59 2 25 5 27 27 22 17 -4 25 -2 26 6 4
31 -4 94 -12 104 -6 8 -2 14 13 18 l23 6 -25 15 c-24 14 -24 14 23 15 26 0 47
-4 47 -10 0 -15 31 -12 50 5 14 12 26 14 66 6 27 -5 94 -15 148 -21 88 -9 101
-9 109 5 7 12 12 13 22 5 8 -7 19 -9 24 -6 5 4 12 2 16 -4 4 -6 50 -10 110
-10 57 0 116 -5 131 -11 16 -5 80 -12 144 -14 63 -2 139 -8 169 -14 29 -6 58
-8 64 -4 16 10 -1 -49 -23 -77 -11 -14 -38 -52 -60 -85 -21 -33 -52 -78 -67
-100 -15 -22 -31 -51 -35 -65 -3 -14 -14 -50 -23 -80 -41 -137 -65 -250 -65
-302 0 -72 -13 -108 -39 -108 -21 0 -153 -60 -183 -84 -10 -7 -18 -18 -18 -25
0 -6 -4 -11 -10 -11 -5 0 -21 -10 -34 -22 -124 -111 -185 -195 -265 -363 -29
-60 -57 -119 -63 -130 -6 -11 -15 -33 -19 -50 -4 -16 -15 -55 -24 -85 -9 -30
-16 -75 -16 -99 1 -32 -9 -61 -40 -119 -23 -42 -48 -99 -56 -127 -8 -27 -24
-70 -35 -95 -10 -25 -23 -54 -28 -65 -5 -11 -11 -27 -13 -35 -3 -10 -8 -7 -15
12 -16 40 -3 128 22 151 15 13 17 20 9 23 -7 3 -13 15 -13 27 0 14 3 18 8 10
4 -7 6 36 4 95 -6 155 -6 161 -14 155 -5 -2 -8 5 -8 16 0 11 4 23 10 26 5 3
10 23 10 43 0 29 -3 34 -11 22 -8 -11 -9 -7 -4 16 5 25 0 38 -21 63 -42 50 -9
87 35 39 19 -20 21 -20 27 -3 4 9 2 33 -5 51 -10 29 -10 37 4 50 21 22 15 48
-12 52 -29 4 -47 59 -45 139 1 53 -2 66 -23 92 -31 36 -25 57 22 76 l35 15 -4
117 c-2 65 0 171 5 235 7 123 0 162 -32 171 -17 4 -51 87 -51 124 0 28 -14 37
-38 22 -16 -10 -20 -28 -25 -118 -3 -58 -10 -119 -17 -135 -6 -17 -11 -119
-13 -255 -1 -124 -1 -207 1 -183 5 74 22 45 22 -38 0 -81 -16 -111 -23 -42 -2
20 -5 -8 -7 -63 -2 -95 -3 -97 -10 -42 -9 71 -20 86 -20 27 0 -41 -1 -43 -15
-24 -14 18 -15 14 -14 -46 2 -69 -8 -130 -22 -130 -4 0 -9 8 -11 18 -3 9 -8
-7 -12 -35 -4 -29 -11 -53 -16 -53 -4 0 -12 35 -17 78 l-10 77 -2 -70 c-2 -38
-3 -116 -4 -172 -1 -57 -5 -103 -9 -103 -5 0 -8 -9 -8 -20 0 -11 5 -20 10 -20
6 0 10 -16 10 -35 0 -37 12 -44 36 -20 8 8 21 12 29 9 9 -4 15 0 15 9 0 13 15
15 86 15 l86 -2 -4 -58 c-2 -32 -7 -60 -10 -64 -3 -3 -20 2 -37 10 -16 9 -41
16 -55 16 -14 0 -28 5 -31 10 -3 6 -17 10 -31 10 l-24 0 1 -152 c0 -84 -1
-160 -4 -168 -2 -8 -2 -12 0 -7 3 4 9 7 15 7 7 0 9 -16 5 -42 -4 -30 -3 -38 5
-27 7 10 8 9 2 -6 -16 -38 -3 -219 17 -239 6 -6 14 -3 22 9 11 14 16 15 22 5
5 -8 4 -15 -2 -17 -6 -2 -9 -12 -6 -21 2 -10 -9 -30 -26 -48 -17 -18 -31 -42
-31 -55 0 -13 -3 -43 -6 -67 -8 -56 4 -132 20 -132 7 0 19 -11 26 -25 7 -14
17 -25 21 -25 14 0 59 -47 59 -61 0 -8 -9 -22 -20 -32 -26 -22 -25 -45 2 -49
14 -2 25 -14 32 -35 14 -40 22 -48 38 -36 23 16 52 9 65 -17 18 -36 36 -60 46
-60 4 0 19 -10 32 -22 42 -40 111 -88 143 -99 31 -11 42 -28 80 -124 19 -47
35 -76 120 -220 19 -31 46 -63 60 -73 73 -45 100 -74 96 -98 -4 -20 0 -24 21
-24 14 0 59 -9 101 -20 41 -11 79 -18 84 -15 15 9 50 -14 50 -33 0 -18 24 -44
50 -54 11 -4 15 3 15 29 0 36 -26 66 -49 57 -7 -3 -18 2 -25 10 -14 17 -4 43
34 84 12 13 42 67 66 120 69 155 69 155 153 130 108 -31 220 -144 261 -263 21
-63 7 -131 -43 -216 -44 -74 -91 -116 -180 -160 -92 -46 -131 -45 -178 4 -21
21 -42 36 -48 34 -15 -5 -23 -78 -35 -332 -6 -121 -13 -256 -16 -300 -12 -181
-52 -961 -70 -1370 -9 -198 -20 -414 -25 -480 -5 -66 -14 -237 -21 -380 -6
-143 -14 -265 -18 -272 -3 -6 -35 -33 -71 -59 -59 -43 -89 -58 -205 -101 -22
-8 -54 -25 -71 -38 -19 -15 -56 -28 -95 -34 -34 -6 -67 -15 -73 -21 -5 -5 -26
-10 -47 -10 -22 0 -50 -10 -74 -26 -22 -15 -41 -22 -47 -16 -5 5 -33 5 -66 0
-31 -4 -91 -8 -132 -7 -99 1 -124 0 -118 -6 10 -10 203 -15 255 -6 33 5 56 4
62 -2 9 -9 38 -2 96 24 11 5 40 13 65 19 25 5 74 16 110 25 36 8 76 13 90 10
19 -4 21 -3 10 5 -8 5 -10 10 -5 11 6 1 17 2 25 3 8 2 31 3 51 4 28 2 36 6 35
19 0 10 7 19 18 21 14 3 17 0 13 -12 -4 -9 -2 -16 3 -16 6 0 10 4 10 9 0 5 9
11 20 14 11 3 20 12 20 21 0 10 9 16 25 16 14 0 25 4 25 10 0 5 7 7 15 4 9 -4
18 3 24 19 8 22 15 24 63 24 59 0 95 -18 100 -49 2 -12 12 -26 23 -32 27 -15
35 -27 35 -54 0 -13 4 -20 10 -17 5 3 12 -7 16 -22 3 -15 10 -44 15 -63 13
-52 11 -107 -6 -140 -14 -27 -18 -29 -65 -25 -45 4 -57 0 -123 -40 -39 -24
-117 -68 -172 -96 -91 -47 -112 -53 -223 -70 -98 -14 -158 -16 -290 -12 -224
8 -230 8 -362 -6 -63 -7 -210 -14 -326 -16 -221 -4 -208 -6 -409 47 -22 6 -86
12 -142 14 -72 2 -112 8 -135 20 -25 13 -63 18 -153 19 -90 2 -128 7 -153 20
-18 9 -60 19 -93 22 -48 5 -59 3 -59 -9 0 -19 24 -41 34 -31 3 4 12 -1 19 -11
8 -11 31 -19 62 -23 28 -2 66 -8 86 -12 20 -5 63 -6 95 -4 44 3 74 -2 119 -18
37 -13 87 -22 130 -23 115 -3 196 -16 275 -44 72 -25 85 -27 290 -28 118 -1
244 2 280 7 36 5 99 14 140 19 41 6 188 12 325 13 303 3 410 19 512 73 38 20
82 47 100 60 17 13 36 24 41 24 5 0 20 9 34 19 13 11 45 22 71 26 l47 7 2 -48
c1 -27 0 -66 -1 -86 -3 -41 10 -51 83 -67 37 -8 44 -26 17 -41 -15 -8 -27 -8
-42 0 -15 9 -36 8 -83 -4 -34 -9 -71 -16 -82 -16 -10 0 -32 -9 -49 -20 l-30
-20 133 0 c86 0 131 4 127 10 -3 6 -2 10 4 10 5 0 13 -4 16 -10 4 -6 104 -10
267 -10 l261 0 -49 27 c-43 23 -63 27 -166 31 -65 2 -115 8 -113 12 3 5 21 7
40 5 19 -2 35 2 35 7 0 7 15 8 38 5 27 -5 50 0 87 17 28 12 75 29 105 36 30 7
68 19 84 27 19 10 41 13 65 8 20 -3 55 -8 77 -10 25 -2 52 -12 68 -26 23 -20
26 -29 21 -60 -13 -76 53 -98 192 -65 32 8 84 19 116 26 44 9 65 19 91 47 l34
36 119 1 c137 1 223 -9 249 -30 18 -13 18 -15 -9 -35 -15 -11 -32 -29 -38 -40
-9 -18 -6 -19 54 -19 l64 0 18 39 c10 22 15 46 12 54 -7 19 -100 66 -163 83
-28 7 -101 14 -162 15 -99 2 -113 0 -137 -20 -15 -11 -33 -21 -40 -21 -6 0
-27 -14 -45 -30 -36 -32 -70 -44 -165 -57 -109 -14 -137 -2 -128 55 6 33 3 39
-37 73 -77 66 -48 77 210 81 120 2 311 -19 340 -37 10 -6 209 -22 365 -30 163
-8 181 -12 210 -48 14 -18 33 -42 42 -54 10 -13 23 -23 30 -23 6 0 13 -4 15
-8 2 -4 20 -18 41 -31 20 -12 37 -26 37 -30 0 -5 33 -9 73 -10 67 -1 71 0 52
15 -36 28 -114 64 -140 64 -14 0 -31 5 -38 10 -7 6 -20 16 -29 23 -10 7 -20
30 -24 53 l-6 41 61 12 c37 7 60 17 58 24 -2 14 52 10 71 -5 8 -7 12 -7 12 2
0 8 13 11 40 8 22 -2 40 -1 40 3 0 3 26 7 57 8 32 1 63 7 70 13 9 7 31 7 73 0
61 -11 90 -8 90 10 0 5 15 6 33 3 17 -3 74 -2 124 3 60 5 112 4 149 -4 54 -10
56 -10 67 13 11 24 31 30 42 13 7 -12 35 12 35 30 0 6 7 13 15 16 27 11 16 24
-19 24 -18 0 -39 6 -45 14 -8 9 -36 14 -87 15 -41 1 -95 6 -121 11 -29 7 -120
8 -243 5 -138 -5 -200 -3 -204 4 -4 6 -16 11 -27 11 -26 0 -24 16 4 23 12 3
40 11 62 17 75 20 260 50 313 50 29 0 66 -7 82 -15 32 -16 128 -18 148 -2 9 7
18 5 30 -6 10 -9 27 -14 39 -11 11 3 24 1 27 -5 11 -17 106 -14 106 3 0 8 5
18 12 22 8 5 9 0 6 -14 -5 -19 -2 -22 27 -22 18 0 36 6 38 13 4 9 6 9 6 -1 1
-17 -37 -92 -47 -92 -12 0 -62 -79 -62 -96 0 -8 -6 -25 -14 -37 -19 -30 -27
-168 -13 -209 22 -60 15 -58 284 -57 227 0 248 2 260 19 8 11 30 20 55 23 64
7 79 12 88 27 11 18 14 15 33 -32 l16 -38 1405 0 1406 0 0 1092 0 1092 -25 26
c-14 15 -27 42 -30 65 -2 21 -10 42 -17 47 -8 5 -2 8 18 8 49 0 54 13 54 136
0 103 -2 112 -20 117 -11 3 -20 12 -20 21 0 9 8 16 20 16 18 0 20 7 20 60 l0
60 -54 0 c-46 0 -56 -3 -61 -20 -4 -13 -19 -23 -36 -27 -28 -5 -30 -8 -27 -50
1 -37 -2 -48 -22 -63 -17 -13 -19 -19 -9 -22 11 -4 10 -12 -6 -42 -11 -21 -24
-40 -29 -43 -5 -4 -6 -1 -2 5 4 8 2 10 -8 6 -8 -3 -17 -12 -20 -19 -6 -18 10
-30 19 -14 8 11 35 -33 35 -57 0 -8 8 -14 18 -14 15 -1 15 -2 -2 -15 -11 -8
-30 -15 -43 -15 -13 0 -23 -4 -23 -10 0 -5 -10 -10 -22 -10 -13 0 -36 -7 -51
-15 -26 -13 -32 -13 -76 10 -69 34 -156 118 -182 173 -12 26 -34 74 -49 107
-31 65 -74 175 -85 215 -26 92 -176 408 -207 437 -10 9 -18 19 -18 24 0 4 -24
42 -52 85 -50 73 -174 194 -201 194 -24 0 -117 44 -117 56 0 20 100 124 126
130 13 3 24 12 24 19 0 8 14 23 30 35 18 13 30 16 30 10 0 -8 9 -10 23 -7 12
3 58 9 102 12 44 3 121 13 172 21 50 8 103 12 116 9 14 -4 33 -2 44 3 10 5 47
6 86 2 56 -6 91 -19 180 -65 62 -31 133 -70 158 -86 25 -16 61 -34 80 -41 19
-6 52 -26 74 -43 22 -18 50 -38 63 -44 l22 -12 0 1679 0 1679 -37 -4 c-37 -4
-57 -19 -47 -35 3 -4 -4 -8 -15 -8 -30 0 -90 -33 -97 -52 -3 -10 -14 -18 -25
-18 -10 0 -19 -4 -19 -9 0 -12 -59 -71 -71 -71 -5 0 -9 -6 -9 -14 0 -15 -67
-59 -78 -52 -4 2 -18 -18 -31 -45 -14 -27 -31 -49 -38 -49 -7 0 -13 -6 -14
-12 0 -7 -4 -2 -10 10 -10 26 -36 25 -31 -1 1 -8 -2 -18 -8 -22 -5 -3 -10 -17
-10 -31 0 -13 -3 -24 -7 -24 -5 0 -16 -14 -25 -30 -11 -20 -22 -28 -32 -24
-11 4 -16 0 -16 -10 0 -9 -4 -16 -10 -16 -5 0 -11 -21 -11 -47 -1 -27 -3 -40
-6 -31 -8 32 -43 -13 -48 -62 -4 -44 -10 -55 -27 -55 -11 0 -23 -17 -32 -47
-3 -10 -14 -18 -25 -18 -20 0 -46 -32 -34 -44 5 -5 -41 -82 -58 -96 -15 -12
-29 -51 -29 -80 0 -24 -4 -31 -15 -26 -10 4 -17 -3 -21 -22 -3 -15 -12 -39
-20 -54 -22 -40 -18 -68 9 -68 31 0 67 -11 67 -20 0 -5 -19 -6 -42 -4 -24 2
-34 1 -23 -2 54 -16 32 -24 -65 -25 -182 -2 -176 -6 -206 119 -12 48 -29 114
-37 147 -9 33 -25 96 -36 140 -11 44 -29 107 -41 140 -33 93 -70 231 -70 258
0 14 -7 28 -16 31 -9 3 -14 13 -11 20 3 8 1 16 -5 18 -6 2 -12 11 -14 20 -1 8
-9 31 -19 51 -9 20 -14 47 -11 64 10 55 54 199 75 246 11 27 21 57 21 68 0 11
5 27 10 37 11 18 53 136 77 217 8 28 20 64 28 80 7 17 20 53 29 82 10 29 30
78 45 110 76 156 118 325 100 401 -21 92 -36 109 -134 157 -105 50 -208 75
-360 86 -219 16 -316 12 -480 -21 -27 -5 -88 -17 -135 -26 -94 -17 -295 -78
-316 -95 -16 -13 -50 -14 -154 0 -46 6 -108 11 -137 11 -61 0 -95 24 -86 59 3
11 2 29 -2 38 -6 16 -8 15 -20 -7 -9 -18 -10 -30 -3 -44 11 -20 -3 -36 -32
-36 -57 0 -256 157 -292 231 -38 79 -59 148 -65 216 -6 72 -6 73 -35 73 -21 0
-31 -6 -38 -26z m-3116 -495 c-8 -14 -24 -10 -24 6 0 9 6 12 15 9 8 -4 12 -10
9 -15z m3805 -398 c4 -7 20 -13 34 -15 14 -1 32 -8 40 -14 8 -7 16 -9 19 -6 4
3 20 -2 37 -10 16 -9 42 -16 56 -16 14 0 28 -7 31 -15 4 -8 12 -15 20 -15 7 0
29 -16 48 -35 20 -19 40 -34 45 -33 8 3 121 -107 121 -117 0 -3 -13 -2 -30 2
-19 3 -30 1 -30 -6 0 -6 16 -11 37 -11 20 0 45 -7 55 -17 19 -17 25 -63 8 -63
-5 0 -10 -5 -10 -10 0 -6 10 -8 24 -4 22 5 26 1 35 -34 6 -22 18 -45 26 -52 8
-7 15 -23 15 -37 0 -13 7 -26 15 -29 10 -4 15 -20 15 -50 0 -31 4 -42 13 -38
10 3 12 -5 9 -31 -3 -21 0 -35 7 -35 6 0 11 8 12 18 0 12 3 11 10 -6 5 -13 7
-27 4 -32 -3 -4 1 -13 9 -19 7 -6 17 -30 21 -54 4 -23 9 -46 10 -52 1 -5 3
-25 3 -44 2 -25 6 -32 17 -27 20 7 31 -19 35 -84 l2 -25 7 25 c6 20 10 9 20
-50 8 -51 9 -76 1 -78 -5 -2 -10 -13 -10 -23 0 -11 5 -17 10 -14 6 4 10 -7 10
-24 0 -20 5 -31 14 -31 19 0 24 -51 20 -190 -4 -121 -32 -257 -53 -252 -6 1
-11 -8 -11 -21 0 -12 -9 -28 -20 -35 -11 -7 -20 -19 -20 -27 0 -8 -5 -15 -10
-15 -6 0 -9 -6 -8 -12 2 -7 -3 -12 -9 -10 -7 1 -13 -2 -13 -8 0 -32 -123 -101
-188 -106 -25 -1 -48 -8 -52 -14 -9 -15 -455 -16 -493 -1 -16 6 -54 11 -86 11
-31 0 -82 4 -112 10 -30 5 -70 12 -89 14 -19 3 -35 5 -35 6 0 1 -31 3 -69 5
-38 2 -73 8 -79 14 -6 6 -21 11 -33 11 -13 0 -26 5 -29 10 -4 6 -10 8 -15 5
-5 -3 -35 2 -67 11 -101 27 -177 45 -208 49 -16 2 -55 11 -85 20 -30 8 -75 15
-100 15 -25 0 -54 7 -64 15 -11 8 -32 15 -47 15 -15 0 -29 5 -31 11 -2 7 -23
12 -46 12 -23 0 -45 4 -48 8 -3 5 -18 9 -34 9 -15 0 -30 7 -34 15 -3 9 -18 15
-40 15 -19 0 -45 4 -59 9 -13 5 -40 12 -60 15 -39 6 -117 43 -117 56 0 5 -9 6
-20 3 -43 -11 -124 34 -107 61 1 3 -9 16 -21 29 -26 27 -27 44 -19 178 3 41
13 93 23 115 9 21 18 41 18 44 1 3 10 18 20 33 13 19 16 31 9 38 -7 7 -6 27 5
62 17 61 20 66 32 48 6 -10 12 -5 26 20 10 19 18 43 18 54 1 11 6 20 11 20 15
0 65 47 60 55 -7 11 15 70 26 70 4 0 6 7 3 15 -3 8 4 26 15 41 12 15 21 36 21
48 0 11 5 28 10 36 8 13 10 12 10 -2 0 -11 8 -18 19 -18 15 0 21 10 26 43 4
23 12 45 18 49 15 9 37 -10 37 -33 0 -14 7 -19 26 -19 20 0 25 4 20 16 -16 42
-18 64 -5 64 10 0 10 3 1 12 -17 17 -15 38 3 38 8 0 15 7 15 16 0 27 61 74 88
67 14 -3 30 1 42 12 11 10 26 15 35 11 18 -7 31 -4 28 7 -2 4 3 7 10 7 13 0
54 30 93 68 13 12 30 22 38 22 8 0 18 5 21 10 11 17 83 50 110 50 15 0 33 6
41 14 8 8 40 22 72 31 31 9 73 25 92 35 19 10 59 21 89 24 30 3 57 10 60 15 7
11 147 32 166 25 7 -3 19 1 26 9 18 20 306 18 318 -2z m-4969 -82 c0 -5 -4 -7
-10 -4 -16 10 -12 -35 4 -51 8 -8 26 -14 40 -14 14 0 26 -5 26 -11 0 -14 -25
-39 -39 -39 -6 0 -11 -11 -11 -24 0 -13 -7 -29 -15 -36 -13 -11 -15 -7 -15 27
0 22 -3 68 -6 102 -6 52 -5 61 10 61 9 0 16 -5 16 -11z m894 -505 c13 -35 4
-77 -27 -127 -42 -65 -96 -113 -137 -122 -41 -9 -56 6 -63 62 -4 36 0 49 23
82 33 45 77 79 135 103 51 21 61 22 69 2z m-1117 -666 c-2 -13 -4 -3 -4 22 0
25 2 35 4 23 2 -13 2 -33 0 -45z m123 -3 c0 -11 -11 -15 -40 -15 -29 0 -40 4
-40 15 0 11 11 15 40 15 29 0 40 -4 40 -15z m1236 -71 c4 -14 12 -23 18 -21 7
3 11 -13 11 -47 0 -63 -31 -131 -60 -131 -11 0 -21 -8 -23 -17 -2 -10 -29 -29
-63 -44 -32 -15 -59 -31 -59 -36 0 -5 -13 -14 -30 -19 -16 -6 -30 -15 -30 -20
0 -14 -68 -11 -74 4 -3 9 -8 8 -15 -4 -7 -11 -33 -19 -81 -23 -38 -4 -76 -13
-84 -21 -7 -8 -15 -13 -17 -11 -2 2 -23 6 -45 10 -39 5 -42 4 -54 -24 -13 -32
-30 -39 -93 -43 -21 -2 -42 -8 -46 -15 -13 -21 -108 -44 -131 -32 -24 13 -26
38 -4 54 21 16 8 45 -17 39 -16 -5 -19 -14 -19 -73 l0 -68 -35 1 c-32 1 -34 3
-28 26 3 15 11 32 17 40 6 8 11 26 12 40 1 15 13 51 27 81 13 30 27 67 31 81
3 15 14 37 25 50 16 20 22 22 44 12 23 -11 112 -15 259 -14 26 0 73 7 106 16
33 8 68 15 79 15 10 0 34 10 53 23 19 13 59 33 88 45 72 29 145 77 172 114
l23 31 13 -24 14 -24 -6 28 c-8 35 13 37 22 1z m-1213 -190 c9 -10 -4 -34 -19
-34 -16 0 -16 2 -8 24 6 17 16 20 27 10z m57 -14 c0 -11 -4 -20 -9 -20 -11 0
-22 26 -14 34 12 12 23 5 23 -14z m77 -22 c-3 -8 -6 -5 -6 6 -1 11 2 17 5 13
3 -3 4 -12 1 -19z m-17 -70 c0 -17 -3 -28 -7 -24 -10 10 -11 56 -1 56 4 0 8
-14 8 -32z m3 -260 c-3 -18 -10 -37 -15 -43 -7 -7 -8 -1 -3 15 3 14 9 33 11
43 9 29 14 19 7 -15z m1925 -116 c-6 -7 -18 -10 -26 -7 -7 3 -19 2 -25 -2 -7
-4 -18 -8 -25 -9 -8 -2 -22 -10 -31 -18 -10 -9 -22 -16 -27 -16 -10 0 -17 -11
-48 -76 -10 -21 -25 -52 -33 -67 -9 -17 -12 -39 -8 -57 5 -24 3 -31 -12 -37
-10 -3 -21 -11 -25 -17 -11 -17 -82 26 -86 52 -2 12 -7 22 -12 22 -4 0 -11 8
-14 18 -17 46 -61 96 -95 107 -12 3 -21 13 -21 21 0 9 -8 14 -17 13 -35 -3
-47 1 -37 11 6 6 40 12 77 14 36 2 71 7 77 11 11 7 191 32 289 41 24 2 46 6
49 8 2 3 17 4 32 3 22 -2 26 -5 18 -15z m812 -23 c144 -20 205 -30 223 -35 26
-8 10 -24 -23 -24 -41 0 -139 -40 -151 -62 -5 -10 -15 -18 -22 -18 -7 0 -23
-16 -36 -35 -13 -19 -30 -35 -37 -35 -10 0 -13 -7 -8 -25 5 -20 2 -25 -14 -25
-11 0 -33 -3 -50 -6 -31 -6 -36 -1 -47 56 -2 12 -10 28 -16 36 -16 19 -48 75
-55 95 -5 14 -68 49 -88 49 -4 0 -19 9 -32 19 -16 13 -20 21 -12 24 22 7 289
-2 368 -14z m-504 -44 c37 -8 82 -23 101 -32 34 -16 133 -103 133 -117 0 -4
10 -20 21 -36 31 -41 23 -153 -15 -210 -14 -22 -26 -42 -26 -45 0 -3 -18 -29
-39 -58 -52 -68 -118 -123 -194 -159 -54 -26 -68 -29 -117 -23 -30 4 -68 15
-85 25 -34 21 -99 95 -143 161 -83 126 -110 303 -61 404 17 37 130 98 169 91
14 -2 33 -1 42 3 36 13 150 11 214 -4z m-846 -92 c47 -17 74 -39 108 -89 35
-52 37 -199 5 -346 -23 -103 -31 -123 -66 -165 -46 -57 -73 -73 -124 -75 -40
-1 -143 28 -143 41 0 4 -10 13 -22 18 -68 32 -156 126 -211 223 -61 110 -67
141 -37 197 12 24 26 43 30 43 4 0 25 18 48 40 69 68 254 142 332 133 19 -3
55 -12 80 -20z m1977 21 c-3 -3 -12 -4 -19 -1 -8 3 -5 6 6 6 11 1 17 -2 13 -5z
m-2347 -9 c0 -2 -20 -16 -44 -30 -24 -14 -52 -37 -61 -51 -12 -19 -21 -23 -37
-18 -15 4 -27 -1 -44 -21 -28 -33 -31 -45 -6 -22 18 16 42 23 42 12 0 -35
-124 -83 -170 -67 -28 10 -81 -4 -151 -39 -9 -4 -26 -5 -38 -2 -11 3 -21 1
-21 -5 0 -5 -8 -12 -17 -16 -87 -29 -190 -104 -180 -130 3 -7 1 -19 -4 -27 -8
-12 -10 -12 -19 1 -5 8 -10 25 -10 37 0 27 82 113 108 113 11 0 26 7 33 17 15
18 106 63 128 63 8 0 22 6 30 13 28 24 114 52 119 39 7 -22 30 -12 44 19 12
27 16 30 46 24 28 -5 34 -3 39 14 4 16 13 21 39 21 19 0 34 4 34 9 0 5 28 18
63 29 67 22 77 24 77 17z m2067 -15 c90 -12 201 -39 209 -52 3 -4 14 -8 26 -8
27 0 164 -76 206 -114 19 -17 50 -56 69 -86 34 -52 35 -57 29 -117 -8 -72 -29
-132 -88 -249 -31 -63 -62 -103 -129 -170 -109 -110 -127 -124 -214 -158 -93
-37 -198 -45 -280 -21 -103 30 -131 79 -140 246 -3 52 -12 134 -21 184 -9 49
-17 151 -18 225 -1 128 0 138 26 185 33 64 55 88 98 110 68 35 111 40 227 25z
m396 -4 c18 -8 64 -22 102 -31 39 -9 80 -23 92 -31 12 -8 33 -14 47 -14 14 0
28 -4 31 -10 3 -5 15 -10 26 -10 11 0 34 -8 52 -17 18 -9 44 -16 58 -14 14 1
31 -5 39 -13 7 -9 25 -16 41 -16 16 0 33 -8 41 -19 9 -12 28 -20 53 -22 22 -2
47 -6 55 -10 8 -4 51 -20 95 -35 44 -15 116 -47 159 -70 43 -23 85 -40 93 -37
15 6 113 -35 113 -48 0 -4 10 -9 23 -13 12 -3 48 -21 81 -41 32 -19 64 -35 70
-35 7 0 23 -11 35 -24 17 -18 19 -25 9 -30 -8 -3 -5 -5 7 -5 11 1 25 1 32 0
14 -1 5 -41 -11 -42 -25 -3 -62 3 -70 11 -5 5 -14 6 -21 4 -7 -3 -16 -1 -19 4
-3 5 -27 5 -61 0 -30 -6 -61 -8 -69 -5 -7 3 -26 33 -42 66 -18 38 -34 59 -41
56 -7 -2 -13 0 -13 5 0 9 -22 25 -109 82 -47 30 -185 80 -245 89 -90 12 -209
-5 -242 -36 -32 -30 -39 -31 -54 -7 -10 14 -11 13 -7 -11 6 -41 -50 -97 -68
-67 -3 6 -17 10 -29 10 -26 0 -53 48 -42 75 3 8 2 15 -3 15 -9 0 -25 57 -22
75 1 5 -5 15 -15 22 -10 8 -15 20 -11 33 4 16 2 20 -9 16 -9 -4 -36 15 -70 49
-31 30 -63 55 -72 55 -8 0 -29 11 -46 23 -17 13 -38 26 -46 30 -8 3 0 6 18 6
19 1 48 -5 65 -13z m-1863 -157 c0 -5 -4 -9 -10 -9 -5 0 -10 7 -10 16 0 8 5
12 10 9 6 -3 10 -10 10 -16z m-788 -139 c28 -111 91 -217 168 -280 23 -19 54
-44 67 -56 32 -25 27 -45 -26 -109 -55 -66 -141 -228 -141 -265 0 -11 -4 -20
-8 -20 -5 0 -18 -20 -30 -43 -36 -72 -65 -97 -112 -97 -22 0 -57 7 -76 15 -58
24 -177 147 -226 233 -92 161 -108 215 -108 355 0 133 11 157 92 209 85 53 97
59 156 70 32 5 75 14 97 18 22 4 62 7 89 6 48 -1 50 -2 58 -36z m3367 -77
c139 -38 253 -129 292 -232 21 -58 20 -91 -5 -146 -80 -170 -88 -185 -151
-248 -69 -70 -104 -87 -184 -87 -68 0 -129 46 -187 144 -52 86 -55 98 -90 274
-32 168 -24 228 41 282 44 36 179 43 284 13z m-4259 2 c0 -8 5 -15 10 -15 6 0
10 -8 10 -19 0 -14 -6 -17 -25 -13 -31 5 -38 16 -30 42 7 23 35 27 35 5z m47
-91 c-3 -3 -12 -4 -19 -1 -8 3 -5 6 6 6 11 1 17 -2 13 -5z m4949 -146 c22 -13
39 -30 39 -38 0 -8 16 -18 40 -24 45 -10 73 -31 52 -39 -7 -3 -5 -6 5 -6 28
-2 68 -23 68 -37 0 -8 6 -11 15 -8 8 4 15 1 15 -5 0 -6 7 -11 16 -11 8 0 12
-5 9 -11 -4 -6 2 -13 14 -16 12 -3 21 -9 21 -13 0 -6 19 -26 91 -93 11 -10 18
-21 15 -26 -3 -4 10 -15 29 -24 35 -17 46 -41 23 -50 -7 -3 -2 -6 12 -6 19 -1
22 -3 11 -10 -12 -8 -8 -11 15 -17 16 -4 43 -21 60 -38 18 -17 45 -41 60 -54
17 -14 21 -21 12 -18 -10 3 -18 1 -18 -3 0 -12 30 -22 42 -14 7 3 8 1 4 -5 -4
-7 -3 -12 3 -12 6 0 8 -12 5 -30 -4 -20 -2 -30 5 -30 8 0 10 -8 6 -22 -3 -13
-3 -18 2 -12 15 19 43 25 43 8 0 -10 -6 -14 -15 -10 -8 3 -15 1 -15 -3 0 -12
27 -21 44 -15 19 7 46 -23 46 -51 0 -16 5 -23 13 -19 8 3 18 -10 26 -33 10
-27 11 -38 2 -41 -6 -2 -11 -13 -11 -25 1 -20 2 -21 14 -4 19 25 26 21 26 -15
1 -18 7 -51 15 -73 17 -46 20 -161 5 -170 -6 -4 -7 -11 -4 -17 4 -6 -4 -53
-17 -104 -22 -89 -38 -106 -39 -41 0 16 -4 26 -9 22 -6 -3 -9 -39 -8 -80 2
-69 0 -75 -28 -105 -18 -19 -29 -40 -27 -52 2 -11 -4 -25 -14 -32 -12 -9 -14
-15 -6 -20 16 -10 15 -57 -2 -92 -8 -16 -19 -41 -25 -56 -6 -16 -14 -28 -18
-28 -8 0 -58 108 -58 125 0 6 -9 13 -20 16 -26 7 -23 53 7 117 23 48 40 110
62 222 7 36 17 76 22 90 14 32 6 113 -11 122 -7 5 -16 32 -20 60 -4 29 -12 59
-17 65 -7 8 -7 35 -3 70 11 77 9 121 -5 138 -7 8 -10 21 -7 29 3 8 -3 24 -13
36 -10 12 -22 35 -25 51 -4 16 -11 29 -16 29 -5 0 -9 7 -9 15 0 8 -5 15 -10
15 -6 0 -10 6 -9 13 1 6 1 21 0 32 -1 15 -3 17 -10 6 -6 -9 -11 -10 -15 -2 -4
6 -12 9 -17 5 -5 -3 -27 9 -48 28 -76 65 -90 76 -95 70 -3 -3 -14 2 -24 11
-13 12 -34 16 -79 14 l-60 -3 -17 38 c-9 21 -16 43 -16 48 0 6 -4 18 -9 28
-44 90 -57 112 -68 112 -7 0 -13 7 -13 15 0 8 -5 15 -11 15 -6 0 -20 11 -30
24 -11 13 -39 34 -64 46 -52 25 -62 37 -38 43 33 9 41 7 79 -15z m-142 -67
c105 -51 224 -191 241 -285 5 -23 -2 -48 -24 -96 -17 -36 -31 -70 -31 -76 0
-6 -9 -19 -21 -30 -12 -10 -27 -31 -35 -46 -31 -60 -171 -103 -256 -79 -60 17
-91 64 -113 170 -32 158 -7 414 44 446 18 12 64 22 105 24 15 0 56 -12 90 -28z
m-3614 -66 c0 -8 -7 -15 -15 -15 -17 0 -19 -9 -5 -30 9 -13 12 -13 24 3 19 24
22 22 40 -24 9 -22 25 -50 36 -62 29 -31 61 -87 50 -87 -6 0 -10 5 -10 10 0 6
-5 10 -11 10 -9 0 -76 46 -116 80 -7 5 -28 10 -48 10 -22 0 -38 6 -41 14 -8
21 24 66 43 59 10 -4 14 0 11 13 -2 11 2 18 10 17 6 -2 12 2 12 7 0 6 5 10 10
10 6 0 10 -7 10 -15z m160 -251 c0 -8 -4 -12 -10 -9 -5 3 -10 13 -10 21 0 8 5
12 10 9 6 -3 10 -13 10 -21z m3930 -74 c103 -53 230 -228 230 -318 0 -60 -20
-93 -82 -133 -84 -56 -121 -70 -189 -72 -106 -2 -139 4 -151 27 -6 12 -17 26
-24 31 -24 18 -44 96 -44 171 0 72 24 213 38 224 4 3 16 22 27 44 11 21 29 42
40 47 30 13 108 3 155 -21z m-3819 -115 c5 4 9 0 9 -7 0 -7 11 -30 25 -50 14
-20 25 -47 25 -59 0 -15 4 -19 16 -15 10 4 14 1 13 -12 -2 -15 17 -59 79 -177
45 -85 72 -147 67 -155 -3 -5 -1 -11 5 -15 5 -3 10 -14 10 -24 0 -10 6 -24 14
-31 8 -6 27 -44 41 -83 15 -40 34 -85 42 -101 9 -15 22 -65 29 -110 7 -44 18
-101 24 -126 39 -169 50 -265 44 -395 -6 -132 -22 -245 -35 -245 -6 0 -5 -8 1
-20 8 -15 7 -27 -3 -47 l-14 -27 -14 37 c-7 20 -17 37 -22 37 -5 0 -22 9 -38
21 -16 11 -39 20 -52 19 -60 -5 -73 13 -42 54 18 23 19 64 4 102 -9 26 -7 31
31 65 23 21 36 39 29 41 -8 3 -8 8 3 18 38 40 66 229 39 264 -5 6 -11 33 -15
60 -11 85 -25 126 -41 120 -10 -4 -15 0 -15 14 0 12 -9 23 -21 27 -17 6 -19 9
-8 16 11 7 11 9 -2 9 -28 0 -43 26 -27 48 13 19 17 170 5 202 -3 8 -13 44 -22
80 -9 36 -20 69 -25 74 -6 6 -10 20 -10 32 0 12 -7 27 -14 34 -8 6 -25 32 -37
57 -12 24 -29 47 -37 51 -9 3 -24 14 -34 24 -10 10 -25 18 -33 18 -17 0 -22
65 -5 75 6 4 8 10 5 15 -3 5 -7 35 -9 67 -2 32 -2 48 1 35 2 -12 9 -20 14 -17z
m4179 -57 c0 -5 -4 -8 -10 -8 -5 0 -10 10 -10 23 0 18 2 19 10 7 5 -8 10 -18
10 -22z m970 -118 c0 -25 -16 -34 -24 -14 -11 28 -7 44 9 38 8 -4 15 -14 15
-24z m-5136 -122 c77 -87 97 -133 121 -282 15 -93 13 -108 -20 -182 -28 -62
-87 -125 -142 -153 -52 -26 -166 -29 -200 -6 -64 45 -86 275 -40 417 22 71 27
78 126 172 23 22 41 45 41 52 0 17 28 44 45 44 7 0 38 -28 69 -62z m217 -658
c20 -47 24 -71 24 -161 0 -120 -4 -134 -71 -217 -33 -41 -65 -55 -124 -53 -66
2 -84 24 -99 125 -20 134 3 238 67 299 24 23 65 61 89 85 l45 43 23 -33 c12
-18 33 -58 46 -88z m3684 -51 c101 -38 173 -129 160 -203 -3 -23 -7 -49 -9
-59 -1 -9 -8 -23 -14 -29 -7 -7 -12 -17 -12 -24 0 -6 -7 -17 -15 -24 -8 -7
-15 -19 -15 -28 0 -17 -88 -138 -122 -167 -32 -28 -85 -65 -92 -65 -3 0 -19
21 -36 48 -16 26 -49 66 -74 90 l-46 42 0 111 c0 132 16 233 43 272 39 57 135
72 232 36z m416 -50 c-15 -43 -14 -48 7 -57 15 -6 16 -12 5 -52 -6 -25 -12
-39 -12 -31 -1 20 -16 4 -16 -17 0 -9 5 -20 10 -24 6 -5 6 -8 -2 -8 -14 0 -7
-71 8 -80 14 -9 1 -81 -20 -109 l-17 -23 -18 40 c-18 39 -18 40 2 60 14 14 22
17 26 9 3 -7 5 -3 3 8 -2 14 -10 20 -28 20 -26 1 -26 1 -25 -82 0 -46 3 -83 6
-83 3 0 11 5 18 12 9 9 12 8 12 -4 0 -8 -7 -21 -15 -28 -8 -7 -15 -19 -15 -26
0 -8 -9 -19 -20 -26 -11 -7 -20 -18 -20 -24 0 -5 -10 -21 -22 -34 -13 -14 -22
-28 -20 -33 4 -13 -40 -97 -50 -97 -5 0 -16 -7 -24 -15 -9 -8 -12 -15 -8 -15
4 0 0 -6 -11 -13 -18 -14 -13 -43 6 -31 5 3 0 -13 -12 -36 -18 -35 -24 -39
-37 -28 -13 11 -15 9 -9 -25 4 -29 2 -41 -12 -55 -19 -18 -65 -100 -66 -117
-1 -22 -16 -33 -38 -27 -18 4 -20 3 -10 -9 13 -16 0 -41 -27 -52 -12 -4 -11
-6 3 -6 9 -1 17 -3 17 -6 0 -8 -48 -89 -94 -160 -25 -38 -46 -75 -46 -82 0 -7
-7 -13 -15 -13 -8 0 -15 -9 -15 -20 0 -26 -36 -83 -84 -133 -20 -21 -36 -43
-36 -48 0 -5 -6 -9 -14 -9 -8 0 -20 -19 -28 -42 -8 -27 -22 -47 -36 -53 -12
-5 -25 -18 -28 -27 -3 -10 -10 -18 -15 -18 -5 0 -9 -6 -9 -14 0 -7 -7 -19 -15
-26 -8 -7 -15 -20 -15 -29 0 -9 -9 -23 -20 -31 -11 -8 -20 -19 -20 -24 0 -12
-40 -56 -51 -56 -4 0 -9 17 -11 38 -3 40 -23 43 -23 2 -1 -18 -7 -26 -23 -28
-17 -3 -22 -10 -22 -32 0 -22 4 -28 15 -24 11 5 13 10 5 19 -8 9 -5 14 10 18
21 5 42 -14 22 -21 -7 -2 -12 -8 -12 -13 0 -11 -51 -58 -62 -59 -4 0 -10 11
-14 25 -3 14 -10 22 -15 19 -12 -7 -1 -46 15 -56 14 -9 -197 -208 -221 -208
-6 0 -16 -6 -22 -14 -7 -8 -25 -17 -40 -21 -14 -3 -47 -24 -71 -46 -44 -40
-108 -79 -130 -79 -6 0 -26 -11 -44 -25 -39 -30 -53 -31 -59 -7 -4 14 -5 13
-6 -4 -1 -23 -42 -49 -63 -41 -9 4 -6 8 9 12 25 8 39 35 18 35 -7 0 -16 -4
-19 -9 -3 -4 -29 -7 -58 -5 -48 4 -50 3 -23 -7 17 -6 36 -12 43 -15 10 -3 10
-8 2 -25 -12 -22 -135 -84 -160 -81 -8 1 -31 5 -50 8 -33 6 -34 5 -15 -9 20
-15 19 -16 -8 -26 -16 -6 -38 -11 -49 -11 -12 0 -29 -7 -39 -16 -10 -9 -34
-16 -53 -17 -20 -1 -36 -5 -36 -10 0 -5 -9 -7 -20 -4 -11 3 -20 2 -20 -2 0 -5
-24 -6 -52 -4 -39 3 -49 2 -38 -6 11 -8 2 -11 -37 -11 -31 0 -54 5 -57 13 -3
6 -4 3 -1 -9 7 -27 -37 -53 -59 -35 -10 8 -15 9 -18 1 -5 -16 -123 -30 -209
-26 -41 3 -128 -2 -194 -10 -66 -9 -138 -13 -160 -10 -22 3 -125 10 -230 16
-241 13 -317 19 -330 29 -5 5 -28 11 -50 15 -50 8 -115 36 -115 49 0 5 -10 7
-21 4 -34 -9 -78 3 -72 19 4 11 -2 13 -25 8 -17 -3 -45 -1 -64 5 -18 6 -37 11
-43 12 -18 1 -35 21 -28 33 5 7 2 7 -8 -1 -12 -10 -22 -8 -47 7 -18 11 -39 20
-46 20 -8 0 -16 7 -20 15 -3 8 -9 14 -13 14 -11 -3 -44 11 -73 31 -14 9 -38
20 -54 24 -22 5 -27 11 -23 26 3 11 1 23 -4 26 -5 3 -9 0 -9 -5 0 -17 -14 -13
-38 10 -12 11 -26 18 -31 15 -13 -9 -34 21 -25 36 6 10 5 11 -8 1 -12 -11 -18
-9 -33 7 -10 11 -24 20 -31 20 -7 0 -23 13 -35 29 -12 16 -32 32 -45 35 -13 4
-23 10 -22 14 3 8 -49 62 -54 57 -5 -5 -89 118 -111 161 -13 26 -18 60 -19
122 0 85 14 135 61 212 5 8 18 33 28 54 39 80 73 72 73 -17 0 -33 -5 -49 -15
-53 -9 -4 -14 -11 -13 -18 1 -6 -2 -22 -6 -35 -5 -13 -4 -33 2 -45 18 -37 32
-111 22 -114 -6 -2 -10 -21 -10 -42 0 -21 -6 -41 -12 -44 -9 -3 -8 -8 5 -16 9
-6 17 -18 17 -25 0 -16 16 -20 24 -6 3 5 0 14 -8 20 -8 7 -13 28 -12 51 2 38
16 70 16 37 0 -20 17 -53 45 -85 17 -20 17 -24 5 -33 -12 -7 -13 -11 -2 -18 8
-4 13 -12 13 -16 -1 -5 16 -9 36 -9 34 -1 38 -4 46 -38 6 -27 14 -38 27 -38
10 0 20 4 22 8 2 5 18 3 36 -5 27 -11 32 -17 22 -28 -9 -11 -7 -12 9 -8 23 6
29 -12 9 -21 -7 -3 -3 -3 8 -1 32 8 234 -75 234 -96 0 -4 13 -10 30 -14 17 -4
30 -11 30 -16 0 -5 9 -9 19 -9 31 0 34 -18 4 -23 -27 -4 -27 -4 4 -6 17 0 35
-6 38 -11 3 -6 17 -7 30 -4 12 3 26 1 29 -5 4 -6 2 -11 -3 -11 -6 0 -11 -5
-11 -11 0 -7 9 -9 23 -5 21 5 89 -12 103 -27 4 -4 29 -7 55 -7 26 0 50 -4 53
-9 6 -9 41 -17 151 -30 39 -5 81 -12 95 -15 14 -4 43 -9 65 -11 49 -6 124 -22
108 -24 -7 0 -13 -5 -13 -11 0 -15 60 -12 66 4 4 10 15 11 52 4 26 -5 88 -6
137 -2 52 3 101 2 116 -4 17 -7 31 -7 44 0 23 14 145 27 145 16 0 -4 9 -8 21
-8 11 0 18 4 15 9 -9 14 29 21 149 28 76 4 112 10 118 19 4 8 21 14 37 14 15
0 30 5 32 10 2 6 22 12 46 13 23 0 42 4 42 7 0 9 99 58 133 66 15 3 30 10 33
15 3 5 20 9 39 9 20 0 35 6 39 15 7 20 84 55 104 47 9 -3 13 -1 9 5 -9 14 48
34 71 26 9 -3 14 -2 9 2 -10 12 48 35 90 35 30 0 34 3 28 20 -4 14 -2 20 9 20
8 0 31 9 50 21 29 17 38 18 55 7 12 -7 21 -16 21 -20 0 -5 10 -8 22 -8 22 0
22 0 -2 17 -14 9 -27 18 -29 19 -9 8 51 53 99 74 30 14 58 28 61 33 7 9 107 0
123 -11 6 -4 29 -5 51 -1 22 3 34 7 27 8 -7 0 -10 5 -7 11 4 6 -7 10 -24 10
-17 0 -31 -4 -31 -10 0 -5 -4 -10 -10 -10 -5 0 -10 7 -10 16 0 12 -7 14 -30 9
-16 -4 -30 -4 -30 0 0 10 140 145 150 145 6 0 10 5 10 12 0 6 6 3 14 -7 13
-18 14 -18 25 4 7 12 9 31 5 43 -5 18 -3 20 15 15 17 -4 21 -1 21 17 0 14 10
28 25 36 14 7 25 17 25 22 0 5 8 7 19 3 15 -4 18 -1 14 19 -4 17 1 27 15 35
11 6 31 30 45 53 28 49 64 84 74 75 3 -4 -4 -18 -17 -32 -18 -19 -20 -25 -8
-25 9 0 18 7 22 15 3 8 11 14 18 13 7 -2 14 8 16 22 4 37 23 80 34 80 5 0 12
-9 15 -20 3 -11 9 -20 14 -20 5 0 9 -8 9 -17 0 -13 3 -14 12 -5 7 7 26 12 44
12 30 0 32 2 32 36 0 34 -1 35 -15 15 -26 -38 -40 -26 -36 32 6 68 21 127 33
127 6 0 10 9 10 20 0 11 5 20 10 20 6 0 10 7 10 16 0 8 5 12 10 9 6 -4 10 9
10 32 0 29 7 45 30 66 17 16 30 35 30 43 0 8 10 14 25 14 16 0 25 -6 25 -15 0
-8 4 -15 9 -15 4 0 5 18 1 39 -5 30 -4 41 6 45 8 3 14 15 14 26 0 12 11 32 25
46 14 14 28 39 32 54 3 16 14 37 24 46 11 9 19 25 19 34 0 21 40 69 40 49 1
-10 5 -8 16 6 8 11 13 28 10 38 -2 10 2 21 10 24 8 3 14 11 14 17 0 7 6 20 13
30 10 14 18 15 40 7 25 -10 28 -8 42 25 8 20 16 46 16 58 1 15 3 17 6 4 6 -23
29 -30 44 -12 10 12 8 18 -9 30 -14 10 -22 26 -22 45 0 16 -4 29 -10 29 -5 0
-10 4 -10 10 0 6 18 7 45 3 40 -5 45 -4 45 14 0 19 -17 43 -32 43 -4 0 -16
-10 -28 -22 -30 -33 -34 -15 -5 27 19 30 23 41 14 52 -9 11 -7 19 9 36 12 13
25 38 28 56 4 18 15 38 25 44 11 7 19 20 19 29 0 26 20 22 21 -4 1 -17 2 -19
6 -5 2 9 11 17 19 17 8 0 14 5 14 10 0 9 -14 14 -32 11 -5 0 -8 8 -8 20 0 12
5 19 13 16 7 -2 16 12 22 37 6 23 16 40 23 39 7 -2 12 8 12 22 0 14 4 25 9 25
5 0 12 14 16 31 4 17 9 28 12 25 3 -3 0 -19 -6 -37z m39 -243 c-10 -28 -26
-31 -33 -6 -3 11 -2 20 3 20 4 0 11 10 14 23 7 21 7 21 15 2 5 -11 5 -29 1
-39z m-814 -155 c54 -25 137 -112 181 -190 52 -92 51 -147 -4 -261 -26 -51
-64 -109 -98 -145 -30 -33 -55 -63 -55 -67 0 -5 -7 -8 -15 -8 -9 0 -27 -11
-41 -25 -20 -20 -36 -25 -84 -27 -37 -1 -65 2 -72 10 -8 8 -18 66 -25 140 -6
70 -16 156 -22 192 -30 185 6 380 72 393 54 11 125 5 163 -12z m509 -174 c-12
-6 -15 -17 -11 -33 4 -14 2 -24 -4 -24 -18 0 -17 75 2 98 10 11 13 10 20 -9 7
-17 5 -25 -7 -32z m-136 -8 c-5 -11 -15 -17 -20 -13 -7 4 -10 -3 -9 -17 3 -36
-10 -68 -25 -63 -7 3 -15 -3 -18 -13 -4 -14 -5 -12 -7 7 -1 14 -4 35 -5 46 -2
16 7 26 31 38 19 8 34 22 34 31 0 9 6 12 15 9 11 -5 12 -11 4 -25z m-3628 -49
c18 -17 40 -54 51 -87 20 -60 45 -269 33 -281 -9 -9 -35 27 -41 58 -14 64 -37
127 -55 145 -11 11 -29 32 -40 47 -14 19 -33 30 -60 34 -46 8 -50 26 -13 67
21 25 55 43 87 46 4 1 21 -12 38 -29z m3719 -10 c0 -5 -2 -10 -4 -10 -3 0 -8
5 -11 10 -3 6 -1 10 4 10 6 0 11 -4 11 -10z m-3804 -151 c20 -17 39 -59 59
-133 19 -71 14 -95 -14 -58 -9 12 -35 43 -58 70 -41 46 -43 47 -97 45 -61 -3
-62 -2 -44 30 31 59 110 82 154 46z m-70 -143 c35 -19 71 -96 43 -96 -28 0
-130 -59 -201 -116 -91 -74 -113 -80 -103 -31 18 87 78 181 146 227 49 33 74
37 115 16z m2878 -48 c85 -25 155 -86 233 -203 75 -114 82 -196 22 -276 -37
-49 -144 -144 -175 -155 -10 -4 -35 -20 -54 -35 -37 -28 -122 -59 -163 -59
-62 0 -88 12 -108 52 -16 32 -19 51 -14 111 3 40 10 90 16 112 6 22 14 112 18
200 9 182 19 213 79 244 43 23 88 26 146 9z m-2693 -125 c19 -9 37 -21 40 -26
4 -5 12 -50 19 -100 15 -119 26 -176 47 -262 27 -112 23 -153 -18 -196 -18
-19 -47 -62 -62 -95 -16 -32 -33 -67 -38 -76 -5 -10 -9 -30 -9 -46 0 -41 -17
-52 -83 -52 -92 0 -263 58 -320 109 -68 60 -116 145 -117 208 -1 77 30 187 72
257 42 72 168 208 217 234 122 67 185 78 252 45z m3230 -90 c-11 -21 -34 -53
-51 -72 -16 -18 -30 -37 -30 -41 0 -4 -11 -20 -25 -36 -14 -16 -25 -37 -25
-46 0 -10 -4 -18 -10 -18 -5 0 -17 -16 -26 -35 -9 -19 -20 -35 -24 -35 -4 0
-11 -10 -15 -22 -4 -14 -8 -18 -12 -10 -2 7 5 29 18 50 18 28 23 53 23 104 1
36 4 70 8 73 4 4 1 17 -7 29 -21 29 -19 33 15 38 19 3 31 0 35 -9 4 -12 11
-11 37 4 34 19 38 22 78 52 14 11 26 18 28 16 2 -2 -6 -20 -17 -42z m-1331
-175 c99 -46 156 -94 207 -173 18 -28 39 -57 48 -66 19 -19 85 -167 85 -189 0
-9 5 -21 11 -27 7 -7 10 -39 8 -85 -4 -71 -6 -75 -49 -121 -25 -27 -67 -60
-95 -74 -27 -14 -52 -29 -55 -33 -7 -9 -99 -40 -122 -40 -10 0 -18 -4 -18 -8
0 -12 -107 -32 -180 -33 -84 -1 -116 7 -165 40 -49 33 -53 61 -31 184 8 45 22
152 31 237 31 303 50 351 160 409 47 25 71 22 165 -21z m1320 -73 c0 -26 -22
-39 -38 -23 -8 8 -6 18 5 34 18 28 33 23 33 -11z m-233 -112 c-17 -18 -22 -8
-11 22 5 12 10 13 17 6 8 -8 6 -16 -6 -28z m-2544 -94 c20 -17 37 -34 37 -39
0 -4 8 -25 17 -46 9 -22 30 -86 45 -144 16 -58 33 -121 38 -140 14 -51 12
-103 -4 -126 -22 -31 -133 -58 -204 -50 -131 15 -265 83 -317 161 -50 76 -20
185 81 292 85 89 144 123 214 123 47 0 61 -5 93 -31z m2443 -6 c-10 -10 -19 5
-10 18 6 11 8 11 12 0 2 -7 1 -15 -2 -18z m-56 -63 c-17 -22 -40 -40 -51 -40
-10 0 -19 -6 -19 -13 0 -17 -93 -112 -141 -144 -22 -14 -39 -32 -39 -39 0 -9
-11 -14 -28 -14 -16 0 -37 -9 -47 -20 -10 -11 -36 -23 -58 -27 -21 -3 -41 -12
-44 -19 -3 -8 -13 -14 -23 -14 -10 0 -28 -11 -41 -25 -48 -50 -77 -16 -35 39
14 19 26 42 26 52 0 10 7 26 17 36 9 10 11 18 6 18 -6 0 -13 20 -17 45 -3 25
-9 65 -12 89 -6 43 -5 45 22 52 16 4 35 11 42 17 8 6 12 6 12 -2 0 -6 7 -11
16 -11 8 0 29 -13 45 -30 26 -25 38 -30 82 -29 56 0 99 14 192 61 109 56 115
59 116 71 0 8 2 8 6 -1 2 -6 -10 -30 -27 -52z m-1690 -37 c22 -15 42 -35 67
-68 9 -12 86 -177 102 -220 19 -50 29 -163 17 -187 -6 -12 -36 -34 -66 -50
-49 -25 -64 -28 -155 -28 -111 1 -198 18 -247 48 -42 26 -94 81 -102 108 -6
18 35 115 89 215 24 43 171 187 197 192 48 9 74 6 98 -10z m2146 -139 c-3 -8
-1 -14 5 -14 6 0 7 -5 3 -12 -4 -6 0 -16 8 -22 8 -6 20 -27 27 -47 6 -20 21
-45 31 -54 11 -10 20 -22 20 -26 0 -4 10 -19 23 -33 36 -40 43 -50 55 -86 10
-28 10 -37 -2 -49 -12 -11 -18 -12 -29 -2 -8 6 -19 11 -23 9 -5 -1 -18 2 -29
8 -11 6 -45 16 -75 22 -30 7 -84 19 -120 28 -36 8 -77 18 -92 21 -16 3 -28 9
-28 14 0 4 -16 11 -35 15 -19 3 -35 9 -35 11 0 3 11 16 26 29 26 25 54 32 54
13 0 -28 25 2 34 42 10 39 14 44 36 41 17 -1 21 1 12 7 -11 7 -10 13 8 29 13
12 17 22 11 26 -5 4 1 17 15 31 25 25 51 35 39 14 -4 -5 -4 -21 -1 -35 6 -21
9 -23 26 -14 18 10 19 13 5 26 -20 20 -19 31 2 43 21 11 38 -10 29 -35z
m-3786 13 c0 -13 12 -23 70 -59 86 -53 174 -87 270 -104 50 -8 61 -8 98 0 19
5 32 4 32 -2 0 -22 104 -132 125 -132 8 0 15 -4 15 -9 0 -5 15 -14 33 -21 17
-7 46 -19 62 -25 84 -35 85 -36 188 -40 87 -3 97 -1 190 38 15 7 27 16 27 21
0 17 33 46 51 46 17 0 33 -28 27 -46 -2 -5 5 -20 15 -34 9 -13 17 -21 17 -17
0 5 5 5 10 2 8 -5 7 -11 -1 -21 -9 -12 -9 -13 3 -9 21 8 68 -12 68 -30 0 -8 8
-15 17 -15 9 0 25 -8 35 -17 12 -10 33 -16 56 -15 29 1 33 -1 17 -8 -16 -7
-13 -9 20 -11 101 -6 221 -3 233 5 7 5 42 6 79 3 41 -3 61 -2 52 4 -11 7 -4
19 32 52 36 33 50 55 64 102 10 33 20 64 22 68 5 9 83 -68 83 -82 0 -5 9 -11
20 -14 11 -3 20 -13 20 -24 0 -13 2 -15 9 -5 5 9 17 11 34 7 15 -4 24 -11 21
-16 -5 -9 42 -12 124 -9 24 1 42 -3 42 -9 0 -6 -6 -11 -13 -11 -7 0 -28 -8
-47 -19 -19 -10 -66 -23 -105 -30 -38 -7 -98 -21 -132 -31 -34 -11 -71 -20
-82 -20 -11 0 -23 -5 -26 -10 -4 -6 -30 -11 -58 -11 -29 0 -144 -2 -255 -5
-139 -5 -222 -3 -260 5 -32 7 -87 13 -124 15 -37 1 -73 7 -80 13 -7 6 -40 13
-73 17 -68 7 -74 8 -205 31 -115 20 -150 32 -150 54 0 14 -2 14 -10 1 -7 -11
-12 -12 -18 -3 -4 6 -20 15 -35 18 -15 4 -30 11 -33 16 -3 5 -12 9 -21 9 -21
0 -213 91 -213 102 0 4 -9 8 -20 8 -10 0 -24 8 -29 18 -5 10 -29 24 -52 31
-23 7 -52 23 -66 37 -13 13 -26 24 -29 24 -14 0 -133 103 -128 111 3 6 -6 19
-20 30 -15 11 -24 25 -21 30 9 13 25 11 25 -4z m2773 -228 c-5 -5 -20 -11 -34
-14 l-24 -4 24 19 c22 19 53 18 34 -1z m-2533 -483 c0 -19 24 -27 59 -20 16 4
40 0 57 -9 16 -8 45 -18 64 -21 19 -4 44 -11 55 -15 11 -5 31 -13 45 -19 14
-5 59 -20 100 -32 120 -36 126 -42 71 -71 -25 -13 -38 -16 -48 -8 -25 22 -415
40 -427 20 -8 -12 -57 -1 -63 15 -9 25 7 83 32 113 14 16 25 36 25 45 0 9 7
16 15 16 8 0 15 -6 15 -14z m-344 -31 c27 -8 74 -14 104 -13 64 1 100 -8 100
-26 0 -8 -7 -29 -15 -48 l-14 -35 -121 -8 c-102 -6 -124 -4 -145 9 -64 42 -70
104 -13 122 47 16 49 16 104 -1z m895 -150 c-1 -15 -24 -12 -29 3 -3 9 2 13
12 10 10 -1 17 -7 17 -13z m-810 -68 c25 -2 50 -7 56 -10 5 -4 13 -41 17 -84
4 -43 9 -94 12 -114 10 -63 -6 -69 -168 -69 -108 0 -148 4 -174 16 -19 9 -34
18 -34 20 0 26 35 197 46 222 l14 34 92 -6 c51 -3 114 -7 139 -9z m200 -19 c1
-17 2 -19 6 -5 7 27 23 20 30 -14 l6 -31 58 4 c49 4 59 1 59 -11 1 -13 2 -13
11 2 6 10 22 17 38 17 23 0 30 -6 35 -26 13 -50 1 -62 -70 -69 -36 -4 -71 -13
-78 -21 -21 -20 -116 -48 -127 -37 -12 12 -16 136 -5 181 9 36 35 44 37 10z
m69 -8 c0 -5 -5 -10 -11 -10 -5 0 -7 5 -4 10 3 6 8 10 11 10 2 0 4 -4 4 -10z
m86 0 c8 0 14 -3 14 -8 0 -4 -20 -6 -45 -4 -25 2 -45 9 -45 14 0 6 13 8 31 4
17 -3 38 -6 45 -6z m144 -30 c0 -12 -28 -25 -36 -17 -9 9 6 27 22 27 8 0 14
-5 14 -10z m2255 -30 c-3 -5 -13 -10 -21 -10 -8 0 -14 5 -14 10 0 6 9 10 21
10 11 0 17 -4 14 -10z m-2891 -256 c23 -9 20 -24 -4 -24 -11 0 -20 7 -20 15 0
17 2 18 24 9z"/>
<path d="M7206 7491 c-8 -12 10 -41 25 -41 13 0 11 13 -4 35 -10 13 -16 15
-21 6z"/>
<path d="M7200 7420 c0 -14 7 -20 21 -20 15 0 19 4 15 16 -3 9 -6 18 -6 20 0
2 -7 4 -15 4 -8 0 -15 -9 -15 -20z"/>
<path d="M6488 7345 c-3 -3 -38 -11 -79 -19 -41 -8 -86 -18 -101 -21 -18 -5
-32 -2 -42 8 -22 22 -56 10 -56 -19 0 -21 -4 -23 -25 -18 -14 3 -31 2 -38 -4
-6 -5 -24 -9 -39 -7 -23 3 -27 0 -25 -18 1 -16 -4 -23 -22 -25 -13 -2 -48 -24
-78 -48 -29 -24 -60 -44 -68 -44 -8 0 -42 -25 -76 -55 -52 -47 -67 -55 -100
-55 -37 0 -39 -2 -39 -30 0 -31 -41 -79 -67 -80 -7 0 -13 -7 -13 -15 0 -29
-76 -129 -91 -120 -4 3 -5 -3 -2 -13 5 -19 -27 -62 -46 -62 -7 0 -9 -5 -6 -11
4 -5 -3 -35 -15 -65 -18 -44 -22 -68 -18 -122 3 -37 1 -78 -3 -90 -5 -12 -5
-22 -1 -23 59 -5 75 -8 81 -17 3 -5 40 -27 81 -48 41 -21 77 -41 80 -45 3 -3
24 -14 48 -24 23 -11 42 -22 42 -26 0 -3 18 -9 39 -13 39 -6 67 -26 37 -26 -9
0 -16 -4 -16 -10 0 -5 6 -10 14 -10 8 0 18 5 21 10 11 18 70 10 106 -14 19
-13 53 -25 75 -27 21 -1 44 -6 49 -9 6 -4 38 -13 73 -20 34 -7 62 -15 62 -19
0 -8 91 -11 340 -13 204 0 206 0 295 30 50 17 108 34 130 38 22 3 51 17 65 29
14 13 39 31 56 41 17 11 31 21 31 24 -1 3 5 14 12 25 8 14 14 16 17 8 11 -25
22 -12 23 25 0 20 3 75 6 122 6 72 -3 198 -20 300 -2 14 -16 58 -30 99 -14 40
-25 88 -25 105 0 31 -12 58 -24 57 -20 -3 -26 3 -49 42 -14 23 -37 53 -51 66
-14 14 -26 30 -26 36 0 6 -19 26 -43 43 -52 40 -73 70 -58 85 6 6 11 18 11 26
0 11 -5 9 -16 -7 -17 -25 -27 -27 -46 -9 -21 19 -56 37 -72 37 -8 0 -19 8 -25
18 -5 9 -12 16 -15 15 -3 -2 -7 -2 -8 -2 -2 1 -21 3 -43 4 -22 2 -70 6 -106 9
-37 3 -68 3 -71 1z m311 -159 c42 -22 130 -125 143 -168 16 -54 -12 -123 -62
-150 -106 -58 -303 65 -312 194 -6 92 140 170 231 124z m-1319 -776 c0 -5 -4
-10 -10 -10 -5 0 -10 5 -10 10 0 6 5 10 10 10 6 0 10 -4 10 -10z"/>
<path d="M7177 6820 c-3 -11 -1 -20 4 -20 5 0 9 9 9 20 0 11 -2 20 -4 20 -2 0
-6 -9 -9 -20z"/>
<path d="M7615 6700 c-3 -5 -1 -10 4 -10 6 0 11 5 11 10 0 6 -2 10 -4 10 -3 0
-8 -4 -11 -10z"/>
<path d="M7222 6460 c0 -14 2 -19 5 -12 2 6 2 18 0 25 -3 6 -5 1 -5 -13z"/>
<path d="M7271 6414 c0 -11 3 -14 6 -6 3 7 2 16 -1 19 -3 4 -6 -2 -5 -13z"/>
<path d="M7718 6358 c5 -71 10 -77 11 -15 0 31 -2 57 -7 57 -4 0 -6 -19 -4
-42z"/>
<path d="M5466 6363 c-3 -3 -3 -10 0 -14 7 -12 34 -11 34 0 0 11 -26 22 -34
14z"/>
<path d="M5571 6200 c0 -29 1 -32 10 -17 7 11 7 23 0 35 -9 14 -10 11 -10 -18z"/>
<path d="M5921 6155 c0 -5 -21 -10 -45 -11 -24 0 -52 -4 -62 -8 -18 -7 -17 -9
6 -21 15 -8 29 -10 36 -4 13 11 83 9 90 -3 3 -4 17 -8 32 -7 26 1 25 2 -10 17
-21 10 -39 24 -42 32 -2 8 -4 11 -5 5z"/>
<path d="M6488 6003 c6 -2 18 -2 25 0 6 3 1 5 -13 5 -14 0 -19 -2 -12 -5z"/>
<path d="M6543 5955 c0 -8 4 -15 9 -15 4 0 8 -7 8 -15 0 -8 5 -15 11 -15 6 0
8 6 5 13 -3 6 -9 20 -12 30 -8 21 -21 23 -21 2z"/>
<path d="M6400 5930 c0 -10 4 -11 56 -14 21 -1 30 3 27 12 -6 14 -83 17 -83 2z"/>
<path d="M6500 5871 c0 -5 6 -11 13 -13 17 -7 38 2 31 13 -7 12 -44 12 -44 0z"/>
<path d="M6560 5870 c0 -6 7 -10 15 -10 8 0 15 2 15 4 0 2 -7 6 -15 10 -8 3
-15 1 -15 -4z"/>
<path d="M2994 6276 c-8 -22 3 -33 18 -18 9 9 9 15 0 24 -9 9 -13 7 -18 -6z"/>
<path d="M2910 6203 c0 -5 4 -15 10 -23 6 -9 5 -17 -3 -22 -7 -5 -1 -8 16 -8
15 0 27 4 27 9 0 5 3 17 7 27 4 11 3 15 -5 10 -6 -3 -13 -2 -17 4 -7 12 -35
14 -35 3z"/>
<path d="M2908 6122 c-19 -4 -51 -49 -40 -56 10 -6 34 9 32 20 -1 5 8 11 19
14 24 6 14 28 -11 22z"/>
<path d="M3630 5539 c0 -5 5 -7 10 -4 6 3 10 8 10 11 0 2 -4 4 -10 4 -5 0 -10
-5 -10 -11z"/>
<path d="M3630 5509 c0 -5 5 -7 10 -4 6 3 10 8 10 11 0 2 -4 4 -10 4 -5 0 -10
-5 -10 -11z"/>
<path d="M4475 5610 c-3 -6 1 -7 9 -4 18 7 21 14 7 14 -6 0 -13 -4 -16 -10z"/>
<path d="M4650 5486 c0 -9 5 -16 10 -16 6 0 10 4 10 9 0 6 -4 13 -10 16 -5 3
-10 -1 -10 -9z"/>
<path d="M5920 5320 c0 -5 5 -10 11 -10 5 0 7 5 4 10 -3 6 -8 10 -11 10 -2 0
-4 -4 -4 -10z"/>
<path d="M7055 4760 c-3 -5 3 -10 15 -10 12 0 18 5 15 10 -3 6 -10 10 -15 10
-5 0 -12 -4 -15 -10z"/>
<path d="M7200 4625 c0 -19 27 -44 48 -45 6 0 12 7 12 15 0 8 -5 15 -12 15 -6
0 -20 7 -30 17 -17 15 -18 15 -18 -2z"/>
<path d="M7667 4073 c-12 -21 -18 -73 -8 -73 6 0 11 7 11 15 0 8 5 15 10 15 6
0 10 11 10 25 0 24 -14 34 -23 18z"/>
<path d="M7632 4000 c0 -14 2 -19 5 -12 2 6 2 18 0 25 -3 6 -5 1 -5 -13z"/>
<path d="M7713 3956 c4 -10 7 -22 7 -27 0 -5 5 -9 11 -9 15 0 7 43 -10 48 -10
3 -12 0 -8 -12z"/>
<path d="M7695 3850 c-3 -5 1 -10 10 -10 9 0 13 5 10 10 -3 6 -8 10 -10 10 -2
0 -7 -4 -10 -10z"/>
<path d="M7647 3713 c-12 -12 -7 -33 8 -33 17 0 19 9 7 28 -5 7 -11 9 -15 5z"/>
<path d="M7681 3694 c0 -11 3 -14 6 -6 3 7 2 16 -1 19 -3 4 -6 -2 -5 -13z"/>
<path d="M7635 3560 c-3 -5 -2 -10 4 -10 5 0 13 5 16 10 3 6 2 10 -4 10 -5 0
-13 -4 -16 -10z"/>
<path d="M7660 3515 c0 -8 5 -15 10 -15 6 0 10 7 10 15 0 8 -4 15 -10 15 -5 0
-10 -7 -10 -15z"/>
<path d="M7625 3470 c-3 -5 -2 -10 4 -10 5 0 13 5 16 10 3 6 2 10 -4 10 -5 0
-13 -4 -16 -10z"/>
<path d="M3631 3874 c0 -11 3 -14 6 -6 3 7 2 16 -1 19 -3 4 -6 -2 -5 -13z"/>
<path d="M3771 3065 c0 -11 7 -36 14 -55 l13 -35 1 30 c0 17 -6 41 -14 55 -13
22 -14 23 -14 5z"/>
<path d="M3740 2836 c0 -2 7 -6 15 -10 8 -3 15 -1 15 4 0 6 -7 10 -15 10 -8 0
-15 -2 -15 -4z"/>
<path d="M3770 2726 c0 -2 9 -6 20 -9 11 -3 18 -1 14 4 -5 9 -34 13 -34 5z"/>
<path d="M7725 3171 c-6 -11 9 -23 19 -14 9 9 7 23 -3 23 -6 0 -12 -4 -16 -9z"/>
<path d="M7646 3021 c-4 -7 -5 -15 -2 -18 9 -9 19 4 14 18 -4 11 -6 11 -12 0z"/>
<path d="M7600 2930 c0 -5 7 -10 16 -10 8 0 12 5 9 10 -3 6 -10 10 -16 10 -5
0 -9 -4 -9 -10z"/>
<path d="M7645 2810 c-3 -5 1 -10 10 -10 9 0 13 5 10 10 -3 6 -8 10 -10 10 -2
0 -7 -4 -10 -10z"/>
<path d="M7560 2751 c0 -6 5 -13 10 -16 6 -3 10 1 10 9 0 9 -4 16 -10 16 -5 0
-10 -4 -10 -9z"/>
<path d="M7521 2604 c0 -11 3 -14 6 -6 3 7 2 16 -1 19 -3 4 -6 -2 -5 -13z"/>
<path d="M7380 2354 c0 -17 22 -14 28 4 2 7 -3 12 -12 12 -9 0 -16 -7 -16 -16z"/>
<path d="M7240 2215 c-10 -12 -10 -19 -1 -28 9 -9 14 -9 21 3 22 34 4 54 -20
25z"/>
<path d="M6954 1682 c-6 -4 -13 -16 -16 -27 -3 -11 -9 -28 -13 -37 -13 -32 19
-20 33 12 15 33 13 63 -4 52z"/>
<path d="M6792 1627 c-7 -8 -6 -18 5 -32 14 -18 15 -18 9 -1 -3 10 -1 25 5 32
7 8 7 14 1 14 -5 0 -14 -6 -20 -13z"/>
<path d="M6850 1574 c0 -8 5 -12 10 -9 6 4 8 11 5 16 -9 14 -15 11 -15 -7z"/>
<path d="M3075 1560 c-3 -5 1 -10 10 -10 9 0 13 5 10 10 -3 6 -8 10 -10 10 -2
0 -7 -4 -10 -10z"/>
<path d="M6770 1560 c0 -5 5 -10 10 -10 6 0 10 5 10 10 0 6 -4 10 -10 10 -5 0
-10 -4 -10 -10z"/>
<path d="M3069 1493 c-26 -6 -42 -94 -20 -107 5 -3 7 -25 5 -49 -3 -35 -1 -33
7 13 8 39 8 59 0 72 -8 13 -7 18 8 23 37 12 36 56 0 48z"/>
<path d="M6480 1286 c0 -9 5 -16 10 -16 6 0 10 4 10 9 0 6 -4 13 -10 16 -5 3
-10 -1 -10 -9z"/>
<path d="M3084 1205 c3 -9 6 -19 6 -21 0 -2 7 -4 16 -4 22 0 13 34 -10 38 -14
3 -17 0 -12 -13z"/>
<path d="M6560 1176 c0 -8 -6 -17 -12 -19 -8 -4 -9 -6 -2 -6 18 -1 37 26 24
34 -5 3 -10 0 -10 -9z"/>
<path d="M6375 1170 c-4 -6 1 -10 9 -10 9 0 16 -5 16 -11 0 -6 5 -9 11 -7 6 2
10 8 10 13 0 13 -39 26 -46 15z"/>
<path d="M3244 1098 c9 -14 26 -28 38 -31 15 -4 19 -12 16 -25 -3 -11 -2 -26
3 -33 6 -10 10 -7 17 11 10 27 6 50 -9 50 -5 0 -9 9 -9 19 0 12 -7 19 -17 19
-10 0 -26 3 -37 7 -18 8 -18 7 -2 -17z"/>
<path d="M3200 1082 c0 -8 37 -42 46 -42 3 0 -3 11 -13 25 -18 24 -33 32 -33
17z"/>
<path d="M3356 1038 c-13 -38 -14 -46 -9 -52 3 -3 12 2 20 10 12 11 13 20 5
37 -9 20 -11 20 -16 5z"/>
<path d="M6305 1040 c3 -5 8 -10 11 -10 2 0 4 5 4 10 0 6 -5 10 -11 10 -5 0
-7 -4 -4 -10z"/>
<path d="M3597 966 c-3 -8 -2 -18 3 -21 13 -8 20 9 11 24 -6 10 -10 9 -14 -3z"/>
<path d="M6050 970 c0 -6 7 -10 15 -10 8 0 15 2 15 4 0 2 -7 6 -15 10 -8 3
-15 1 -15 -4z"/>
<path d="M3680 920 c0 -5 5 -10 10 -10 6 0 10 5 10 10 0 6 -4 10 -10 10 -5 0
-10 -4 -10 -10z"/>
<path d="M5945 910 c-29 -6 -29 -6 -6 -12 14 -4 31 -3 39 1 21 12 2 18 -33 11z"/>
<path d="M5700 810 c0 -5 7 -10 16 -10 8 0 12 5 9 10 -3 6 -10 10 -16 10 -5 0
-9 -4 -9 -10z"/>
<path d="M3878 803 c7 -3 16 -2 19 1 4 3 -2 6 -13 5 -11 0 -14 -3 -6 -6z"/>
<path d="M5560 800 c-12 -8 -11 -10 7 -10 12 0 25 5 28 10 8 13 -15 13 -35 0z"/>
<path d="M5936 781 c-4 -5 -2 -12 3 -15 5 -4 12 -2 15 3 4 5 2 12 -3 15 -5 4
-12 2 -15 -3z"/>
<path d="M5840 740 c0 -5 5 -10 10 -10 6 0 10 5 10 10 0 6 -4 10 -10 10 -5 0
-10 -4 -10 -10z"/>
<path d="M5580 731 c0 -5 7 -12 16 -15 24 -9 28 -7 14 9 -14 17 -30 20 -30 6z"/>
<path d="M5050 680 c0 -5 15 -10 34 -10 19 0 38 5 41 10 4 6 -10 10 -34 10
-23 0 -41 -4 -41 -10z"/>
<path d="M4548 673 c-27 -7 -22 -23 7 -23 16 0 25 6 25 15 0 15 -2 16 -32 8z"/>
<path d="M4830 670 c-30 -6 -27 -7 25 -8 42 0 54 2 40 8 -23 10 -19 10 -65 0z"/>
<path d="M5430 670 c0 -5 11 -10 25 -10 14 0 25 5 25 10 0 6 -11 10 -25 10
-14 0 -25 -4 -25 -10z"/>
<path d="M4050 659 c0 -5 5 -7 10 -4 6 3 10 8 10 11 0 2 -4 4 -10 4 -5 0 -10
-5 -10 -11z"/>
<path d="M4000 636 c0 -10 28 -13 41 -5 10 6 7 9 -13 9 -16 0 -28 -2 -28 -4z"/>
<path d="M4560 619 c0 -5 5 -7 10 -4 6 3 10 8 10 11 0 2 -4 4 -10 4 -5 0 -10
-5 -10 -11z"/>
<path d="M5090 626 c0 -2 7 -6 15 -10 8 -3 15 -1 15 4 0 6 -7 10 -15 10 -8 0
-15 -2 -15 -4z"/>
<path d="M5115 580 c-16 -7 -14 -9 15 -9 19 0 42 4 50 9 11 7 8 10 -15 9 -16
0 -39 -4 -50 -9z"/>
<path d="M3600 1130 c0 -5 5 -10 11 -10 5 0 7 5 4 10 -3 6 -8 10 -11 10 -2 0
-4 -4 -4 -10z"/>
<path d="M3628 323 c7 -3 16 -2 19 1 4 3 -2 6 -13 5 -11 0 -14 -3 -6 -6z"/>
<path d="M8050 8491 c0 -5 7 -11 15 -15 9 -3 15 0 15 9 0 8 -7 15 -15 15 -8 0
-15 -4 -15 -9z"/>
<path d="M8095 8481 c-3 -5 2 -11 10 -15 8 -3 17 -1 20 3 3 5 -2 11 -10 15 -8
3 -17 1 -20 -3z"/>
<path d="M8150 8440 c19 -13 30 -13 30 0 0 6 -10 10 -22 10 -19 0 -20 -2 -8
-10z"/>
<path d="M1677 8424 c-3 -5 -2 -25 2 -44 6 -32 8 -33 13 -12 7 26 -5 71 -15
56z"/>
<path d="M8220 8420 c0 -5 5 -10 10 -10 6 0 10 5 10 10 0 6 -4 10 -10 10 -5 0
-10 -4 -10 -10z"/>
<path d="M8260 8400 c0 -5 7 -10 16 -10 8 0 12 5 9 10 -3 6 -10 10 -16 10 -5
0 -9 -4 -9 -10z"/>
<path d="M8302 8388 c6 -18 56 -41 74 -34 22 8 7 26 -21 26 -13 0 -27 5 -30
10 -9 14 -27 12 -23 -2z"/>
<path d="M240 8260 c0 -11 7 -20 15 -20 17 0 18 2 9 24 -9 23 -24 20 -24 -4z"/>
<path d="M8678 8243 c7 -3 16 -2 19 1 4 3 -2 6 -13 5 -11 0 -14 -3 -6 -6z"/>
<path d="M444 8065 c4 -24 16 -30 16 -7 0 12 -4 22 -9 22 -5 0 -8 -7 -7 -15z"/>
<path d="M439 7960 c-9 -31 -14 -110 -16 -250 -1 -113 -3 -218 -3 -235 -7
-165 8 -315 30 -315 9 0 20 51 20 91 0 32 -16 39 -23 12 -3 -10 -5 -2 -5 17 0
19 2 29 5 23 13 -33 21 -3 29 115 12 165 6 462 -10 532 l-13 55 -14 -45z"/>
<path d="M1683 7890 c0 -30 2 -43 4 -27 2 15 2 39 0 55 -2 15 -4 2 -4 -28z"/>
<path d="M1682 7790 c0 -19 2 -27 5 -17 2 9 2 25 0 35 -3 9 -5 1 -5 -18z"/>
<path d="M1972 7790 c-6 -11 -12 -32 -12 -47 0 -24 2 -25 14 -13 16 18 31 80
19 80 -4 0 -14 -9 -21 -20z"/>
<path d="M8918 7470 c-14 -36 -25 -126 -18 -140 8 -14 14 -5 34 55 6 17 -10
101 -16 85z"/>
<path d="M9380 7280 c0 -5 6 -10 14 -10 8 0 18 5 21 10 3 6 -3 10 -14 10 -12
0 -21 -4 -21 -10z"/>
<path d="M1751 6734 c0 -11 3 -14 6 -6 3 7 2 16 -1 19 -3 4 -6 -2 -5 -13z"/>
<path d="M8270 6590 c0 -5 5 -10 10 -10 6 0 10 5 10 10 0 6 -4 10 -10 10 -5 0
-10 -4 -10 -10z"/>
<path d="M8210 6556 c0 -8 5 -18 10 -21 6 -3 10 0 10 7 0 9 3 9 10 -2 8 -12
10 -11 10 8 0 15 -6 22 -20 22 -11 0 -20 -6 -20 -14z"/>
<path d="M8285 6560 c-3 -5 -1 -10 4 -10 6 0 11 5 11 10 0 6 -2 10 -4 10 -3 0
-8 -4 -11 -10z"/>
<path d="M452 6380 c0 -14 2 -19 5 -12 2 6 2 18 0 25 -3 6 -5 1 -5 -13z"/>
<path d="M1705 6146 c0 -58 4 -108 8 -112 4 -4 7 43 7 104 0 62 -3 112 -7 112
-5 0 -8 -47 -8 -104z"/>
<path d="M446 6201 c-5 -21 -4 -36 2 -40 7 -4 7 -21 0 -53 -12 -49 -1 -129 17
-135 12 -4 18 196 6 211 -5 6 -11 20 -13 31 -3 15 -6 12 -12 -14z"/>
<path d="M460 5949 c0 -5 5 -7 10 -4 6 3 10 8 10 11 0 2 -4 4 -10 4 -5 0 -10
-5 -10 -11z"/>
<path d="M472 5890 c0 -19 3 -57 8 -85 6 -40 7 -43 8 -15 0 19 -3 58 -8 85 -6
40 -7 43 -8 15z"/>
<path d="M1713 5880 c0 -25 2 -35 4 -22 2 12 2 32 0 45 -2 12 -4 2 -4 -23z"/>
<path d="M450 5648 c0 -12 3 -17 8 -12 4 5 11 12 15 15 5 3 2 9 -7 12 -12 5
-16 0 -16 -15z"/>
<path d="M1830 5028 c0 -7 5 -20 10 -28 8 -12 10 -9 10 13 0 15 -4 27 -10 27
-5 0 -10 -6 -10 -12z"/>
<path d="M1938 4996 c-10 -7 -18 -18 -18 -25 0 -6 -4 -11 -10 -11 -5 0 -10 5
-10 10 0 6 -9 10 -20 10 -13 0 -20 -7 -20 -20 0 -10 -6 -31 -12 -46 -10 -22
-10 -28 0 -32 17 -5 15 -30 -3 -48 -27 -27 -12 -53 36 -63 30 -6 37 -3 61 23
32 36 35 66 11 103 -16 24 -16 26 3 40 11 9 14 17 8 19 -6 3 -9 16 -6 29 5 29
4 29 -20 11z"/>
<path d="M1902 4733 c-10 -4 -9 -8 5 -19 25 -19 33 -17 33 6 0 20 -12 24 -38
13z"/>
<path d="M1920 4640 c0 -21 -15 -27 -25 -10 -5 8 -11 7 -21 -1 -7 -6 -20 -9
-28 -6 -15 6 -26 -12 -26 -44 0 -10 -4 -19 -10 -19 -5 0 -10 -8 -10 -17 0 -10
-7 -26 -15 -36 -7 -11 -11 -25 -9 -32 3 -7 1 -16 -5 -20 -7 -4 -11 7 -11 29 0
51 -17 53 -23 3 -7 -59 -3 -97 13 -107 10 -6 7 -10 -13 -15 -34 -9 -38 -43 -4
-43 12 -1 108 -3 212 -6 144 -4 184 -3 165 6 -36 16 -68 20 -74 9 -9 -14 -47
8 -75 42 -23 28 -24 30 -7 43 13 9 17 21 14 38 -3 14 0 27 6 29 8 3 7 8 -1 18
-15 16 -17 59 -3 59 20 0 9 38 -15 54 -15 10 -22 22 -19 31 4 8 1 15 -5 15 -6
0 -11 -9 -11 -20z m-153 -232 c-3 -8 -6 -5 -6 6 -1 11 2 17 5 13 3 -3 4 -12 1
-19z"/>
<path d="M2305 4310 c-19 -8 -19 -9 2 -9 12 -1 25 4 28 9 7 12 -2 12 -30 0z"/>
<path d="M2426 4313 c-16 -17 -1 -23 54 -23 45 0 60 3 60 14 0 11 -14 15 -54
15 -30 0 -57 -3 -60 -6z"/>
<path d="M2750 4166 c0 -2 9 -6 20 -9 11 -3 18 -1 14 4 -5 9 -34 13 -34 5z"/>
<path d="M2380 4111 l-25 -7 25 -5 c14 -3 36 -2 50 2 14 4 20 7 13 8 -6 1 -17
3 -25 5 -7 2 -24 1 -38 -3z"/>
<path d="M435 4010 c-4 -6 -8 -57 -10 -113 -3 -104 -10 -137 -27 -137 -5 0
-34 -7 -64 -16 -68 -19 -110 -55 -125 -102 -14 -50 -44 -84 -74 -88 -14 -1
-25 2 -25 7 0 5 -4 9 -10 9 -5 0 -10 -6 -10 -12 0 -15 -45 -38 -72 -38 -17 0
-18 -12 -18 -146 0 -135 1 -146 18 -139 9 4 37 13 62 20 25 7 57 18 72 24 38
14 53 6 78 -42 12 -23 28 -46 36 -50 18 -10 9 -28 -10 -21 -7 3 -16 -3 -18
-13 -5 -17 -12 -18 -79 -12 -55 5 -81 4 -103 -7 -16 -8 -35 -14 -43 -14 -10 0
-13 -22 -13 -96 0 -72 3 -95 13 -91 6 2 12 12 12 23 0 14 7 18 25 16 28 -3 26
-1 35 -31 5 -16 4 -21 -4 -17 -6 4 -26 4 -46 0 -29 -5 -35 -10 -35 -32 0 -28
37 -113 54 -124 16 -11 19 -2 7 20 -8 15 -7 23 4 32 13 11 15 6 15 -33 0 -25
4 -48 8 -51 18 -11 12 -68 -12 -99 -48 -63 -76 -144 -76 -219 l0 -70 98 7
c118 9 192 -4 273 -45 50 -25 61 -27 65 -15 4 8 14 15 23 15 14 0 17 7 14 38
-20 184 -21 261 -6 274 7 6 11 14 8 18 -3 5 -1 11 5 15 6 4 8 11 5 16 -4 5 5
14 19 20 52 24 65 -11 67 -188 1 -65 5 -113 11 -113 6 0 7 45 4 118 -3 64 -8
200 -11 302 -7 250 -13 409 -26 640 -5 107 -10 206 -10 220 0 14 -3 53 -6 87
-3 50 -8 62 -24 66 -23 6 -25 42 -2 55 18 11 15 42 -11 105 -16 36 -47 50 -61
27z m-145 -876 c0 -17 -22 -14 -28 4 -2 7 3 12 12 12 9 0 16 -7 16 -16z m220
-89 c0 -25 -4 -45 -10 -45 -5 0 -10 20 -10 45 0 25 5 45 10 45 6 0 10 -20 10
-45z m-430 -35 c0 -5 -7 -10 -16 -10 -8 0 -12 5 -9 10 3 6 10 10 16 10 5 0 9
-4 9 -10z m132 -43 c-3 -11 -19 -33 -34 -48 -34 -30 -58 -73 -58 -100 0 -11
-5 -19 -10 -19 -12 0 -2 80 11 95 16 17 9 43 -13 50 -22 7 -22 8 5 12 16 3 34
0 41 -6 16 -13 27 -4 19 15 -3 8 0 21 7 29 17 21 40 1 32 -28z m188 27 c0 -8
-4 -12 -10 -9 -5 3 -10 10 -10 16 0 5 5 9 10 9 6 0 10 -7 10 -16z m-275 -14
c3 -5 1 -10 -4 -10 -6 0 -11 5 -11 10 0 6 2 10 4 10 3 0 8 -4 11 -10z m245
-40 c0 -5 -4 -10 -10 -10 -5 0 -10 5 -10 10 0 6 5 10 10 10 6 0 10 -4 10 -10z
m-290 -50 c0 -5 -5 -10 -11 -10 -5 0 -7 5 -4 10 3 6 8 10 11 10 2 0 4 -4 4
-10z m42 -125 c0 -5 -5 -11 -11 -13 -6 -2 -11 4 -11 13 0 9 5 15 11 13 6 -2
11 -8 11 -13z m120 -182 c7 -25 -1 -43 -16 -37 -8 3 -11 15 -8 30 5 28 18 32
24 7z m-85 -170 c-3 -10 -5 -4 -5 12 0 17 2 24 5 18 2 -7 2 -21 0 -30z"/>
<path d="M9493 3013 c-18 -7 -16 -48 2 -63 21 -18 47 5 43 39 -3 25 -21 35
-45 24z"/>
<path d="M9350 2990 c0 -5 7 -10 15 -10 8 0 15 5 15 10 0 6 -7 10 -15 10 -8 0
-15 -4 -15 -10z"/>
<path d="M9512 2830 c14 -22 24 -19 15 5 -4 8 -11 15 -17 15 -6 0 -6 -7 2 -20z"/>
<path d="M9073 2570 c-24 -10 -43 -23 -43 -28 0 -15 49 -32 111 -39 38 -4 59
-10 59 -19 0 -7 13 -1 30 14 34 30 39 66 11 82 -32 16 -122 11 -168 -10z"/>
<path d="M479 2301 c-15 -14 -15 -18 -2 -30 18 -17 25 -10 21 22 -3 22 -4 23
-19 8z"/>
<path d="M592 2293 c-1 -17 -8 -33 -14 -36 -10 -3 -10 -9 0 -26 16 -27 15 -41
-1 -41 -8 0 -19 -10 -26 -23 -11 -20 -9 -32 12 -79 35 -79 47 -82 46 -11 -2
82 -15 254 -17 216z"/>
<path d="M0 2033 c0 -205 3 -262 13 -257 6 4 32 24 57 44 26 21 74 46 113 58
74 24 211 47 226 38 16 -10 40 5 34 21 -6 15 15 63 28 63 4 0 10 -13 14 -30 4
-16 12 -30 20 -30 9 0 12 15 10 58 -2 31 -3 76 -4 99 -1 31 -6 43 -19 47 -10
3 -45 33 -79 65 -34 33 -69 60 -80 60 -10 0 -49 5 -88 10 -38 5 -109 11 -157
14 l-88 5 0 -265z m400 -73 c0 -5 -4 -10 -10 -10 -5 0 -10 5 -10 10 0 6 5 10
10 10 6 0 10 -4 10 -10z"/>
<path d="M600 1940 c-1 -8 -3 -29 -4 -47 -2 -20 1 -34 10 -37 10 -4 14 3 13
27 0 35 -17 83 -19 57z"/>
<path d="M500 1894 c0 -12 48 -29 58 -20 2 3 -1 12 -7 20 -14 17 -51 17 -51 0z"/>
<path d="M320 1795 c0 -21 -4 -25 -19 -20 -11 3 -22 1 -26 -5 -3 -5 -15 -10
-26 -10 -10 0 -19 -4 -19 -9 0 -5 -9 -12 -19 -16 -11 -3 -23 -15 -26 -26 -4
-11 -14 -18 -23 -17 -13 2 -16 -3 -14 -21 2 -23 -22 -61 -39 -61 -4 0 -15 7
-24 16 -18 18 -31 11 -37 -21 -2 -12 -13 -21 -26 -23 -19 -3 -22 -10 -22 -45
l0 -42 138 -23 c75 -12 153 -22 172 -22 19 0 42 -5 50 -10 11 -7 6 -13 -25
-26 -63 -26 -235 -84 -287 -97 l-48 -11 0 -63 c0 -49 3 -63 15 -63 8 0 15 -7
15 -15 0 -22 17 -18 23 6 4 15 12 20 30 17 14 -1 34 5 46 16 14 13 28 16 46
12 14 -4 25 -2 25 4 0 5 -5 10 -11 10 -6 0 -9 5 -7 12 6 17 56 29 62 15 2 -7
5 -4 5 6 1 16 7 17 49 12 26 -4 57 -13 69 -21 28 -17 33 -17 33 -1 0 8 9 22
19 31 11 10 17 24 15 31 -7 16 5 23 49 30 26 4 36 2 41 -10 3 -9 11 -13 17
-10 6 4 8 13 5 20 -2 7 2 16 10 19 8 3 13 2 10 -3 -3 -5 3 -11 15 -14 11 -3
25 -19 32 -36 19 -51 27 -35 27 55 l0 85 -30 10 c-16 6 -30 17 -30 25 0 8 -7
14 -15 14 -8 0 -15 5 -15 10 0 7 -7 7 -20 0 -22 -12 -136 5 -146 21 -3 5 -25
9 -49 9 -24 0 -46 4 -50 9 -3 6 -27 13 -53 17 -59 8 -66 12 -51 30 13 15 34
20 24 5 -3 -5 14 -9 37 -9 24 0 52 -3 63 -7 19 -6 20 -2 18 54 -2 57 -1 60 25
65 27 5 101 9 155 7 17 -1 27 -7 27 -16 0 -8 7 -15 15 -15 8 0 15 -5 15 -11 0
-8 5 -7 15 1 21 17 26 10 34 -51 3 -29 11 -54 17 -56 12 -4 7 206 -6 220 -4 4
-18 9 -31 11 -13 1 -34 8 -46 14 -38 21 -93 12 -93 -14 0 -8 -9 -14 -20 -14
-11 0 -20 6 -20 13 0 8 -15 14 -37 15 -20 2 -40 5 -45 8 -4 3 -8 -7 -8 -21z
m185 -15 c3 -5 21 -11 38 -11 24 -1 27 -3 9 -6 -18 -4 -22 -9 -17 -26 5 -18 4
-19 -4 -5 -7 10 -19 14 -31 11 -11 -3 -20 0 -20 6 0 6 5 11 11 11 5 0 7 5 4
10 -4 7 -14 2 -26 -11 -11 -12 -22 -19 -26 -16 -6 7 34 47 48 47 4 0 11 -4 14
-10z m-295 -100 c0 -5 -2 -10 -4 -10 -3 0 -8 5 -11 10 -3 6 -1 10 4 10 6 0 11
-4 11 -10z"/>
<path d="M603 1533 c-18 -7 -16 -40 3 -47 28 -11 33 -7 32 24 -1 29 -9 34 -35
23z"/>
<path d="M621 1240 c-7 -17 -11 -40 -8 -52 3 -12 1 -31 -5 -42 -13 -23 -16
-36 -23 -120 -3 -32 -12 -65 -20 -73 -8 -8 -15 -22 -14 -31 0 -14 2 -14 6 -2
4 8 13 21 20 29 20 20 63 -1 63 -31 1 -20 2 -21 10 -7 8 14 -3 316 -13 352 -1
4 -8 -7 -16 -23z"/>
<path d="M234 1184 c3 -9 6 -18 6 -20 0 -2 12 -4 26 -4 33 0 27 22 -10 31 -22
6 -27 5 -22 -7z"/>
<path d="M18 1043 c-12 -3 -18 -14 -18 -34 0 -18 4 -28 10 -24 5 3 10 13 10
22 0 9 8 22 18 29 17 13 12 15 -20 7z"/>
<path d="M836 733 c-16 -17 -5 -35 19 -31 19 4 25 1 25 -12 0 -12 9 -17 35
-18 19 -1 51 -8 71 -17 20 -8 45 -15 54 -15 10 0 20 -6 23 -12 4 -10 7 -10 18
-1 17 17 9 23 -43 34 -48 10 -104 32 -159 60 -20 10 -39 16 -43 12z"/>
<path d="M1116 625 c4 -8 11 -15 16 -15 6 0 5 6 -2 15 -7 8 -14 15 -16 15 -2
0 -1 -7 2 -15z"/>
<path d="M1180 610 c-17 -10 12 -20 61 -20 24 0 38 -4 34 -10 -3 -5 0 -10 7
-10 16 0 47 19 33 20 -5 0 -35 7 -66 14 -31 8 -62 10 -69 6z"/>
<path d="M1340 570 c8 -5 28 -10 43 -10 16 0 26 -4 22 -10 -4 -6 5 -10 19 -10
27 0 34 14 15 26 -18 11 -117 15 -99 4z"/>
<path d="M1275 550 c4 -6 11 -8 16 -5 14 9 11 15 -7 15 -8 0 -12 -5 -9 -10z"/>
<path d="M1600 540 c0 -12 8 -12 35 0 18 8 17 9 -7 9 -16 1 -28 -3 -28 -9z"/>
<path d="M1550 536 c0 -9 30 -14 35 -6 4 6 -3 10 -14 10 -12 0 -21 -2 -21 -4z"/>
<path d="M0 475 c0 -23 2 -25 21 -15 23 13 21 33 -4 38 -12 3 -17 -4 -17 -23z"/>
<path d="M214 478 c-11 -18 8 -47 38 -57 48 -17 147 -14 154 4 8 19 -30 54
-60 57 -68 5 -128 3 -132 -4z"/>
<path d="M2710 474 c0 -7 -15 -15 -32 -18 -18 -4 -55 -11 -83 -17 -27 -5 -106
-14 -175 -20 -69 -6 -128 -16 -131 -21 -4 -6 -12 -7 -18 -4 -6 4 -26 3 -44 -3
-24 -8 -55 -8 -106 -1 -52 7 -78 7 -93 -1 -12 -7 -90 -13 -187 -15 -91 -1
-192 -6 -223 -9 -48 -6 -61 -4 -75 11 -17 17 -18 17 -21 0 -3 -11 -7 -14 -15
-8 -7 5 -52 12 -102 16 -101 7 -459 7 -490 0 -11 -3 -38 4 -60 16 -21 11 -47
20 -57 20 -9 0 -20 5 -24 11 -3 6 -18 9 -33 6 -15 -3 -34 1 -45 9 -30 22 -92
18 -118 -8 -20 -20 -20 -22 -4 -34 10 -7 24 -10 31 -8 7 3 50 -2 95 -10 45 -9
111 -16 147 -16 36 0 79 -6 96 -14 55 -24 221 -38 425 -35 145 2 203 -1 220
-10 14 -8 35 -10 50 -6 15 4 97 9 182 11 85 3 223 6 305 8 206 5 417 23 495
42 131 31 156 35 182 30 21 -4 30 0 39 16 10 18 8 24 -11 40 -18 15 -32 18
-63 12 -28 -4 -42 -2 -48 7 -5 9 -9 9 -9 3z"/>
<path d="M464 429 c-5 -9 25 -20 37 -13 5 3 9 9 9 14 0 10 -39 9 -46 -1z"/>
<path d="M0 338 c0 -24 4 -25 68 -31 90 -9 122 -9 122 1 0 11 -86 41 -142 48
-46 6 -48 6 -48 -18z"/>
</g>
</svg>
